<?xml version="1.0" encoding="utf-8"?>
<svg viewBox="333.5000305175781 383.70001220703125 283.3000183105469 77.09991455078125" width="283.3000183105469" height="77.09991455078125" xmlns="http://www.w3.org/2000/svg"><path class="st1" d="M552.3,438.1c0.1,1.3,1.9,1.4,3,1.1c1-0.3,1.5-0.9,2.2-1.9c1-1.6,2.1-3.5,3-5.2c0.8-0.1,1.6-0.1,2.4,0&#10;&#9;&#9;c-0.1,2.1,0.7,4.4,0.2,6.5c-0.5,2.2-2.1,2.2-3.8,2.8c-0.1,0.3-0.1,0.8,0,1.1c1.6,1,4.1,0,5.4-1.5c1.3-1.5,1.2-4.2,1.3-6.3&#10;&#9;&#9;c1.4-0.1,2.8,0.1,4-0.4c1.1-0.4,2.1-1.5,3.4-1.5c2.5-0.1,4.1,2.8,6,4.3c2.1,1.7,4.4,2.4,6.9,2.6c1.5,0.1,2.8,0.1,4.2,0.6&#10;&#9;&#9;c1,0.4,2,1.2,3,1.5c1.3,0.4,2.5,0.3,3.9,0.3c0.7,0,3.9-0.5,4.4,0c0.8,0.8-0.2,2.4-0.9,3c-1.1,0.9-2.3,0.6-3.6,0.7&#10;&#9;&#9;c0.1,1.6,2.6,1.8,3.7,1.3c1.3-0.6,1.5-2,2.3-3.2c1.7,1.8,0.2,5.6-1.3,7c-0.7,0.7-2.7,1-1.9,2.2c0.8,1.1,2.9,0,3.5-0.6&#10;&#9;&#9;c2.1-1.8,2-5.1,2.1-7.8c0-1.4,0.3-3.3,0-4.7c-0.5-2.5-3.8-2.2-4.6-4.6c-0.6-1.8-0.3-5.3-0.2-7.1c0.1-1.4,0.2-3,0.6-4.4&#10;&#9;&#9;c0.2-0.6,0.3-1.4,0.6-1.9c0.3-0.5,0.9-0.7,1.4-0.8c1.7-0.5,2.8,0.6,4.2,1.2c1.5,0.6,2.8,2,4.5,1.3c1.2-0.5,1.2-1.6,0.7-2.7&#10;&#9;&#9;c-0.5-1.1-1.5-1.6-2.4-2.4c-0.6-0.6-1.3-1.2-1.9-1.8c-0.7-0.6-1.3-1.4-1.9-2.1c-0.6-0.7-1.2-1.4-1.7-2.1c-0.4-0.5-0.7-1.2-1.3-1.5&#10;&#9;&#9;c0.3,0,0.6-0.1,1.1-0.1c1,0,2.9,0.8,4.1,1.2c1.3,0.3,3.8,0.4,5.2,0.5c1.4,0.1,2.7-2.6,2.5-3.9c-0.1-0.5-0.3-1.3-0.9-1.1&#10;&#9;&#9;c-0.1,0.3,0.1,0.5,0.2,0.8c0.1,0.4,0.1,0.7,0,1.1c-0.2,0.7-0.6,1.4-1.3,1.6c-0.8,0.2-1.7,0.3-2.5,0.2c-0.5-0.1-1.6-0.2-2-0.6&#10;&#9;&#9;c0.3-0.3,0.9-0.4,1.2-0.9c0.4-0.9,0.8-1.9,1-2.9c0.1-0.4,0.3-3.3-0.7-2.8c-0.5,0.2-0.1,1.1-0.1,1.4c0.2,1.2-0.2,2.1-0.8,3&#10;&#9;&#9;c-0.4,0.6-1.2,1.5-1.4,0.3c-0.1-0.6,0.3-3.2-0.8-3c-0.3,1,0.2,2.1-0.3,2.9c-0.7,1.4-3.4,1.1-4.6,1.1c-0.3-0.6-0.7-1.2-1-1.9&#10;&#9;&#9;c-0.6-1.2-0.5-2.5-0.6-3.8c-0.1-1.4,0.3-2.2,1.1-3.3c0.2-0.3,0.9-1,0.1-1.1c-0.4,0-0.8,0.6-1.1,0.8c-0.7,0.8-1,1.8-1.2,2.9&#10;&#9;&#9;c-0.1,1,0,2-0.2,3c-0.5-0.1-0.7-0.7-1-1c-0.4-0.4-0.8-0.8-1.2-1.2c-0.6-0.8-0.5-2.5-0.7-3.5c-0.3-1.6,0.6-2.3,0.6-3.6&#10;&#9;&#9;c0-1.3-0.7-0.8-0.7-0.8s-1,1.1-1.1,2.5c-0.1,0.8,0,1.7,0.1,2.5c0,0.3,0.4,1.6,0.1,1.8c-0.3,0.2-1.5-1.2-1.7-1.4&#10;&#9;&#9;c-1.5-1.8-2-4.1-3.1-6.2c-0.7-1.3-0.9-0.4-0.9-0.4s0.5,3.3,1.4,5.1c0.8,1.7,3.3,4.7,5.4,5.6c2.1,0.8,4.6,4.6,4.6,4.6l0.3,0.3&#10;&#9;&#9;c-0.6-0.1-1.3,0-1.9,0.2c-0.7,0.2-1.2,0.3-1.7-0.3c-0.7-0.9-1.1-1.5-2.2-1.8c-0.3-0.1-0.7-0.1-1.1-0.2c-0.3-0.1-0.5-0.2-0.8-0.3&#10;&#9;&#9;c0.2,1.1,0.2,2.3,0.8,3.3c0.3,0.6,0.6,1.1,1.1,1.4c0.3,0.2,0.8,0.3,1,0.7c0.4,1.1-0.9,2.5-1.4,3.4c-0.9,1.5-1.6,3.1-2.4,4.7&#10;&#9;&#9;c-4,8.4-12.4,1.2-17.4-2.2c-1.3-0.9-2.5-1.2-4.1-1.3c-1.3-0.1-3,0.4-4-0.4c-0.4-0.3-1.8-2.4-1.9-2.9c-0.4-0.9,0.6-3.5-0.4-3.6&#10;&#9;&#9;c-1.6-0.2-1.8,3.8-1.4,4.8c0.6,1.4,2.3,2.6,3.3,3.5c-2.5,2-1.6,5.3-1.8,8.3c-0.2,3.9-4.9,2.5-7.1,1.1c-1.4,1.4-1.2,3.7-2.1,5.6&#10;&#9;&#9;C556.4,436.6,554.4,437.6,552.3,438.1z M483.3,432.2c0.3,1.2,2.1,1.1,3.1,0.7c1-0.4,1.4-1.1,1.9-2.2c0.8-1.7,1.7-3.8,2.3-5.6&#10;&#9;&#9;c0.8-0.2,1.6-0.3,2.4-0.4c0.1,2,1.2,4.2,1,6.4c-0.3,2.3-1.8,2.5-3.4,3.3c0,0.3,0,0.8,0.1,1.1c1.7,0.7,4.1-0.6,5.2-2.3&#10;&#9;&#9;c1.1-1.7,0.7-4.4,0.5-6.4c1.4-0.3,2.8-0.3,3.9-1c1-0.6,1.9-1.8,3.1-2c2.4-0.4,4.4,2.2,6.4,3.3c2.3,1.3,4.7,1.7,7.2,1.6&#10;&#9;&#9;c1.5-0.1,2.8-0.4,4.2,0c1.1,0.3,2.1,0.9,3.2,1.1c1.3,0.2,2.5,0,3.9-0.2c0.7-0.1,3.8-1,4.4-0.6c0.9,0.7,0.1,2.4-0.5,3.1&#10;&#9;&#9;c-0.9,1-2.2,0.9-3.5,1.2c0.3,1.6,2.8,1.4,3.8,0.8c1.2-0.8,1.2-2.2,1.9-3.5c1.9,1.5,0.9,5.5-0.4,7.2c-0.6,0.8-2.6,1.4-1.6,2.5&#10;&#9;&#9;c0.9,1,2.8-0.5,3.4-1.1c1.9-2.1,1.3-5.3,1.1-8c-0.1-1.4-0.1-3.3-0.5-4.6c-0.8-2.5-4-1.6-5.1-3.9c-0.8-1.7-1-5.2-1.1-7&#10;&#9;&#9;c-0.1-1.5-0.2-3,0.1-4.4c0.1-0.6,0.1-1.4,0.4-2c0.2-0.5,0.8-0.8,1.3-1c1.6-0.7,2.8,0.2,4.4,0.6c1.5,0.4,3,1.6,4.6,0.6&#10;&#9;&#9;c1.1-0.7,1-1.8,0.3-2.8c-0.7-1-1.7-1.3-2.6-2c-0.7-0.5-1.4-1-2.1-1.5c-0.8-0.5-1.4-1.2-2.2-1.8c-0.7-0.6-1.4-1.2-2-1.8&#10;&#9;&#9;c-0.5-0.5-0.9-1-1.4-1.4c0.3,0,0.6-0.1,1-0.2c1-0.2,2.9,0.4,4.2,0.6c1.3,0.1,3.8-0.2,5.2-0.3c1.4-0.1,2.4-2.9,2-4.2&#10;&#9;&#9;c-0.1-0.4-0.5-1.2-1-1c0,0.4,0.2,0.5,0.3,0.8c0.2,0.4,0.2,0.7,0.1,1.1c-0.1,0.8-0.4,1.5-1.1,1.8c-0.8,0.4-1.6,0.6-2.5,0.6&#10;&#9;&#9;c-0.5,0-1.6,0-2-0.3c0.3-0.4,0.9-0.5,1-1c0.3-1,0.5-2,0.6-3c0-0.4-0.1-3.3-1-2.7c-0.5,0.3,0,1.1,0.1,1.4c0.4,1.1,0.1,2.1-0.4,3.1&#10;&#9;&#9;c-0.3,0.7-1,1.7-1.3,0.5c-0.2-0.6-0.1-3.2-1.1-2.8c-0.1,1,0.4,2,0.1,2.9c-0.6,1.5-3.2,1.6-4.5,1.8c-0.4-0.6-0.8-1.1-1.2-1.7&#10;&#9;&#9;c-0.7-1.1-0.8-2.4-1.1-3.7c-0.3-1.3,0-2.3,0.6-3.4c0.2-0.4,0.7-1.1,0-1.1c-0.4,0-0.8,0.7-1,1c-0.6,0.9-0.8,2-0.8,3.1&#10;&#9;&#9;c0,1,0.2,2,0.2,3c-0.5,0-0.8-0.6-1.2-0.9c-0.4-0.3-0.9-0.7-1.3-1c-0.7-0.7-0.9-2.4-1.2-3.4c-0.5-1.6,0.3-2.3,0.1-3.7&#10;&#9;&#9;c-0.2-1.3-0.8-0.7-0.8-0.7s-0.9,1.2-0.8,2.7c0,0.8,0.2,1.6,0.4,2.4c0.1,0.3,0.6,1.5,0.3,1.7c-0.3,0.3-1.6-0.9-1.8-1.1&#10;&#9;&#9;c-1.7-1.5-2.5-3.8-3.9-5.6c-0.8-1.2-0.9-0.3-0.9-0.3s0.9,3.2,2,4.8c1.1,1.6,3.8,4.2,6,4.7c2.2,0.5,5.2,3.8,5.2,3.8l0.4,0.2&#10;&#9;&#9;c-0.6,0-1.3,0.2-1.9,0.5c-0.7,0.3-1.1,0.5-1.7-0.1c-0.8-0.8-1.3-1.4-2.4-1.5c-0.4,0-0.7,0-1.1,0c-0.3,0-0.5-0.2-0.8-0.2&#10;&#9;&#9;c0.3,1.1,0.5,2.2,1.2,3.1c0.4,0.5,0.7,1,1.3,1.2c0.3,0.1,0.8,0.2,1,0.6c0.6,1-0.5,2.6-0.9,3.5c-0.7,1.6-1.2,3.3-1.8,5&#10;&#9;&#9;c-2.9,8.9-12.2,3-17.5,0.4c-1.4-0.7-2.7-0.8-4.2-0.7c-1.3,0.1-2.9,0.8-4,0.2c-0.5-0.3-2.1-2.1-2.3-2.6c-0.5-0.8,0.1-3.5-0.8-3.5&#10;&#9;&#9;c-1.6,0-1.3,4.1-0.8,4.9c0.8,1.3,2.6,2.2,3.7,3c-2.2,2.3-0.9,5.5-0.7,8.4c0.3,3.9-4.6,3.2-6.9,2.2c-1.2,1.6-0.7,3.9-1.4,5.8&#10;&#9;&#9;C487.1,430.1,485.3,431.3,483.3,432.2z M411.4,439.7c0.4,1.2,2.2,0.7,3.1,0.1c0.9-0.6,1.2-1.4,1.5-2.5c0.5-1.8,1.1-4.1,1.4-5.9&#10;&#9;&#9;c0.7-0.3,1.5-0.6,2.3-0.8c0.5,2,1.8,4,1.9,6.1c0.1,2.3-1.4,2.8-2.9,3.9c0,0.3,0.1,0.8,0.3,1c1.8,0.4,3.9-1.4,4.7-3.2&#10;&#9;&#9;c0.8-1.9,0-4.4-0.5-6.4c1.3-0.5,2.7-0.8,3.7-1.7c0.9-0.8,1.6-2.1,2.8-2.6c2.3-0.9,4.7,1.3,6.9,2.1c2.4,0.9,4.9,0.9,7.3,0.3&#10;&#9;&#9;c1.4-0.3,2.7-0.9,4.2-0.8c1.1,0.1,2.2,0.5,3.3,0.5c1.3,0,2.5-0.5,3.8-0.9c0.7-0.2,3.6-1.7,4.2-1.4c1,0.5,0.5,2.4,0,3.1&#10;&#9;&#9;c-0.8,1.2-2,1.3-3.3,1.8c0.5,1.5,3,0.9,3.9,0.1c1.1-1,0.9-2.4,1.4-3.8c2.1,1.2,1.7,5.2,0.7,7.1c-0.5,0.9-2.3,1.9-1.2,2.7&#10;&#9;&#9;c1,0.8,2.7-1,3.2-1.7c1.5-2.5,0.5-5.5-0.1-8.1c-0.4-1.4-0.6-3.2-1.2-4.5c-1.1-2.3-4.2-0.8-5.6-2.9c-1-1.5-1.8-4.9-2.1-6.8&#10;&#9;&#9;c-0.3-1.4-0.6-2.9-0.6-4.4c0-0.7-0.1-1.4,0.1-2.1c0.2-0.6,0.6-0.9,1.1-1.2c1.5-1,2.8-0.3,4.4-0.2c1.5,0.1,3.2,1,4.6-0.2&#10;&#9;&#9;c1-0.9,0.7-2-0.1-2.8c-0.8-0.8-1.9-1-2.9-1.5c-0.8-0.4-1.5-0.7-2.3-1.1c-0.8-0.4-1.6-0.9-2.4-1.4c-0.8-0.4-1.5-0.9-2.2-1.4&#10;&#9;&#9;c-0.5-0.4-1-0.9-1.6-1.1c0.3-0.1,0.5-0.3,1-0.4c1-0.4,3-0.1,4.3-0.2c1.3-0.1,3.7-0.9,5.1-1.2c1.3-0.4,1.9-3.3,1.4-4.6&#10;&#9;&#9;c-0.2-0.4-0.6-1.1-1.1-0.8c0,0.4,0.3,0.5,0.4,0.7c0.2,0.4,0.3,0.7,0.3,1.1c0,0.8-0.2,1.5-0.8,2c-0.7,0.5-1.5,0.9-2.3,1&#10;&#9;&#9;c-0.5,0.1-1.6,0.3-2.1,0.1c0.2-0.4,0.8-0.6,0.9-1.2c0.1-1,0.2-2,0.1-3c0-0.4-0.6-3.2-1.4-2.5c-0.4,0.4,0.2,1,0.3,1.3&#10;&#9;&#9;c0.5,1.1,0.4,2,0.1,3.1c-0.2,0.7-0.7,1.8-1.2,0.7c-0.2-0.5-0.5-3.1-1.5-2.6c0,1,0.7,1.9,0.5,2.9c-0.3,1.5-2.9,2.2-4.1,2.6&#10;&#9;&#9;c-0.5-0.5-1-1-1.5-1.5c-0.8-0.9-1.2-2.2-1.6-3.4c-0.5-1.3-0.3-2.2,0.1-3.5c0.1-0.4,0.6-1.2-0.2-1.1c-0.4,0.1-0.6,0.8-0.8,1.1&#10;&#9;&#9;c-0.5,1-0.5,2.1-0.3,3.2c0.1,1,0.5,1.9,0.7,2.9c-0.5,0.1-0.9-0.4-1.3-0.6c-0.5-0.3-1-0.5-1.4-0.8c-0.8-0.6-1.2-2.2-1.7-3.1&#10;&#9;&#9;c-0.8-1.4-0.1-2.4-0.5-3.6c-0.4-1.3-0.9-0.6-0.9-0.6s-0.7,1.3-0.4,2.8c0.2,0.8,0.5,1.6,0.8,2.3c0.1,0.3,0.8,1.4,0.6,1.6&#10;&#9;&#9;c-0.2,0.3-1.7-0.6-2-0.8c-1.9-1.2-3.1-3.3-4.7-4.9c-1-1-1-0.1-1-0.1s1.4,3,2.7,4.4c1.3,1.4,4.4,3.5,6.7,3.6&#10;&#9;&#9;c2.2,0.1,5.7,2.8,5.7,2.8c0.1,0.1,0.3,0.1,0.4,0.1c-0.6,0.1-1.2,0.5-1.8,0.8c-0.7,0.4-1,0.7-1.7,0.2c-0.9-0.7-1.5-1.1-2.6-1&#10;&#9;&#9;c-0.4,0-0.7,0.2-1.1,0.2c-0.3,0-0.6-0.1-0.8-0.1c0.5,1,0.9,2.1,1.6,2.9c0.5,0.5,0.8,0.8,1.4,1c0.4,0.1,0.9,0.1,1.1,0.4&#10;&#9;&#9;c0.7,0.9-0.1,2.7-0.4,3.6c-0.4,1.8-0.7,3.5-1,5.2c-1.5,9.3-11.5,5.2-17.2,3.6c-1.5-0.4-2.8-0.3-4.2,0.1c-1.3,0.4-2.7,1.3-3.9,0.9&#10;&#9;&#9;c-0.5-0.2-2.4-1.7-2.6-2.1c-0.6-0.7-0.4-3.5-1.4-3.3c-1.6,0.3-0.6,4.2,0,5c1,1.2,2.9,1.7,4.1,2.3c-1.8,2.7-0.1,5.6,0.6,8.5&#10;&#9;&#9;c0.9,3.8-4,4-6.4,3.4c-0.9,1.8-0.1,4-0.4,6C414.9,437,413.3,438.5,411.4,439.7z M333.5,425.9c0.1,2.3,2.2,1,2.4,3.5&#10;&#9;&#9;c1.5-0.2,1.3-2.7,3.3-3.1c1.3-0.3,4.1,0.3,5,1.3c4.4,4.6-5.5,2.2-5.2,4.9c2.8,0.2,5.5-0.6,6.6,2.7c0.9,2.7-0.3,6.2,0.9,8.9&#10;&#9;&#9;c2,4.7,6.8,4.8,11.1,4.4l-8.3,11.3c-0.8,0-1.6,0-2.4-0.1c-2-0.1-5.2-0.8-6.3-2.9c-1.1-2.1-0.2-5.2,1.9-6.1c2.3-1,5.7,0.3,5.2,3.4&#10;&#9;&#9;c-0.2,1.5-1.1,2.2-2.5,1.6c-1-0.4-2.1-1.5-0.5-2c0.1-0.8-0.7-0.9-1.1-0.4c-0.3,0.5-0.1,1.4,0.1,1.9c0.5,0.9,2.2,1.9,3.1,1.4&#10;&#9;&#9;c1.3-0.6,1.9-2.6,1.5-3.9c-0.4-1.5-1.6-2.7-3-3.2c-3.5-1.1-7.4,2.4-5.9,6.3c1.3,3.3,4.3,3.9,7.2,4.4c3.5,0.6,7.6,0.4,11.2,0&#10;&#9;&#9;c4.1-0.4,8.2-0.9,12.4-1.3c4.7-0.5,8.9-1.6,13.4-3c1.9-0.6,3.7-1.1,5.5-2c1.3-0.7,2.6-1.6,3.9-2.4c2.3-1.3,5.1-3.6,6.2-6.2&#10;&#9;&#9;c2.2-4.9,0.7-11.8-4.2-14.1c-2.6-1.2-5.4-0.7-7.3,1.6c-0.8,1-1.3,2.2-1.6,3.5v0c-0.2-1.1-0.7-3.5-1.4-4.4c-0.9-1.1-2.6-1.2-3.6-2.1&#10;&#9;&#9;h-0.7c0.9-2.9,6.3-1.6,6.6-2.7c1-4-5.4-1.8-6.8-0.6c-1.1,0.9-2.3,3.2-3.7,2.8c-1.1-0.3-1.9-2.4-1.6-3.6c0.6-2.2,5.7-3.3,5.7-4.8&#10;&#9;&#9;c0.1-3.3-6.6,1-7.5,1c-2.6-0.1-4.9-4.5-6.4-6.4c-0.8-0.9-0.8-0.9-1.3-2c-0.4-1.1,0.1-1.3-0.7-2.2c-0.6-0.6-3.2-1.8-4-1.9&#10;&#9;&#9;c-3.4-0.5-6.5,2.4-9.9,1.9c-1.2-0.2-3-2.2-3.7,0c-0.7,2,1.5,3.1,2.8,2.4c-0.1-0.3-0.1-0.6-0.2-0.9c2.3-2.6,5.6,0.8,6.9,2.6&#10;&#9;&#9;c0.6,0.7,2,1.8,2.4,2.5c0.6,1.2,0,2.3,0,3.8c-4.9-0.3-7.7-5.8-13.2-4c-1,0.3-2.5,1-3.3,1.7c-1.1,1-0.8,1.9-1.5,3.1&#10;&#9;&#9;c-1.1,1.7-4.6,1.7-5.7-0.5c-0.7,0.5-0.8,1.2-1.1,1.9C334.4,423.9,333.6,426.2,333.5,425.9z M375.1,457.6c0.4-0.4,0.7-0.9,0.9-1.1&#10;&#9;&#9;c0.7-1.2,1.3-2.4,2-3.6c1.1-2,2.2-4.3,4-5.6c1.9-1.4,4.9-1.6,6,0.9c1.1,2.2,0.9,5.4-1.8,6.1c-2.3,0.6-5.2-0.8-3.8-3.8&#10;&#9;&#9;c0.5-1,1.8-1.5,2.7-0.7c0.4,0.4,0.7,1,0.4,1.6c-0.4,0.7-1.8,0.1-1.6,0.9c0.1,0.6,1.1,0.6,1.5,0.4c0.6-0.3,1-0.9,1-1.5&#10;&#9;&#9;c0.1-1.9-1.9-2.5-3.3-2.1c-1.4,0.4-2.3,2.7-2,4.3c0.4,1.8,2.1,1.8,3.5,1.8c0.2,0,0.3,0,0.5,0c-1.1,0.3-2.1,0.7-3.1,1.1&#10;&#9;&#9;C380,457,377.5,457.2,375.1,457.6z M371.6,458.2c0.6-0.4,1.1-0.9,1.5-1.6c0.9-1.6,1.5-3.4,2.5-4.9c0.5-0.9,0.9-1.7,1.4-2.6&#10;&#9;&#9;c0.2-0.5,1.5-2.1,1.6-2.9c1.3-0.4,2.5-0.8,3.8-1.4c2-0.9,3.4-3.1,3.8-5.5c0.2,1.2,0.7,2.4,1.5,3.4c2.6,2.9,8.5,1.5,7.4-3.4&#10;&#9;&#9;c-0.4-1.8-1.8-2.8-3.5-2.5c-1.5,0.3-2.2,2-1,3.2l0.5-0.3c-1.1-1.8,1.1-2.6,2.2-1.5c0.7,0.7,0.9,2.1,0.6,3.1&#10;&#9;&#9;c-0.9,2.7-4.3,2.5-5.9,0.6c-1.6-1.8-1.7-5-0.2-6.9c2.8-3.7,9.8-2.9,11.4,1.7c0.8,2.2,0.3,5.8-0.3,7.9c-0.6,2.2-2.6,4.1-4.4,5.3&#10;&#9;&#9;c-0.9,0.7-2.1,1.4-3.1,2c-0.8,0.5-1.7,1.3-2.6,1.7c-0.3,0.1-0.6,0.3-0.9,0.4c1.3-0.9,2.2-2.3,1.6-4.2c-0.9-2.7-3.2-5.5-6.2-4.7&#10;&#9;&#9;c-0.9,0.3-1.8,1.3-2.6,1.9c-1.1,0.9-2,1.9-2.7,3.2c-0.8,1.5-1.5,3.1-2.3,4.6c-0.6,1.1-1,2.2-1.8,3l-0.3,0.1&#10;&#9;&#9;C373,458,372.3,458.1,371.6,458.2z M366.8,457.5c-1-0.5-1.6-2-1.8-3.1c-0.4-1.5-0.5-2.9,0.5-4.2c1.2-1.6,3.3-1.9,5-1.1&#10;&#9;&#9;c1.2,0.6,1.6,1.9,0.6,3c-0.6,0.7-2.8,1.7-3.3,0.2c-0.2-0.6,0.8-1.1,0.1-1.4c-0.8-0.3-0.9,0.8-0.8,1.4c0.3,1.6,2.3,2.3,3.6,1.9&#10;&#9;&#9;c1.6-0.5,2.4-2.5,2.1-4.2c-0.2-1.3-0.9-2.1-1.9-2.5c2.1-0.2,4.2-0.4,6.3-0.9l0,0c-0.5,0.8-0.9,1.7-1.4,2.6c-1,2-2.1,4.1-2.8,6.2&#10;&#9;&#9;C372.1,458,369.1,458.7,366.8,457.5z M358.6,448.5c0.8-0.1,1.7-0.2,2.4-0.3c1.7-0.2,3.4-0.3,5.1-0.4c-0.8,0.4-1.5,1-1.9,1.8&#10;&#9;&#9;c-0.7,1.4-0.5,3.5-0.3,5c0.2,1.6,0.8,3,2.2,3.7c0.4,0.2,0.7,0.3,1.1,0.4c-0.6,0-1.2,0.1-1.8,0.1c-2.9,0.2-5.8,1-8.8,1&#10;&#9;&#9;c-1.3,0-2.5,0-3.8,0.1l8.5-11.4h-0.9l-8.3,11.5c-0.7,0-1.3,0-2,0L358.6,448.5z" style="fill: rgb(204, 204, 204); opacity: 1;" transform="matrix(1, 0, 0, 1, 0, 0)"/></svg>