<?xml version="1.0" encoding="utf-8"?>
<!-- Generator: Adobe Illustrator 27.5.0, SVG Export Plug-In . SVG Version: 6.00 Build 0)  -->
<svg version="1.1" id="Layer_1" xmlns="http://www.w3.org/2000/svg" xmlns:xlink="http://www.w3.org/1999/xlink" x="0px" y="0px"
	 viewBox="0 0 229.662 333.921" style="enable-background:new 0 0 229.662 333.921;" xml:space="preserve" transform="scale(-1, 1)">
<g transform="scale(-1, 1) translate(-200, 0)">
	<g>
		<g>
			<g>
				<path style="fill:#A74714;" d="M69.295,188.829c-3.265,5.08-9.182,7.322-14.136,10.393
					c-11.459,7.104-20.326,13.586-30.207,22.764c0.123,3.363-1.6,8.266-1.886,11.665c-0.262,3.114-0.677,6.854-1.603,9.822
					c-0.685,2.196-3.899,0.623-4.368-0.932c-1.029-3.42,0.728-12.98,1.051-14.55c-3.495,3.297-5.88,5.837-8.932,9.631
					c-1.421,1.766-5.436-0.453-4.571-2.575c2.251-5.525,7.796-9.408,12.004-13.409c2.557-2.431,5.168-4.807,7.838-7.114
					c-1.246-0.243-2.413-0.54-3.226-0.64c-2.813-0.346-5.638-0.756-8.428-1.262c-2.405-0.436-4.697-0.594-7.088-0.906
					c-1.255-0.164-2.37-1.613-1.774-2.806c0.915-1.831,3.261-1.61,5.025-1.336c6.542,1.016,13.163,1.458,19.7,2.54
					c3.007,0.498,13.035-8.78,16.009-10.855c0.187-0.13,0.374-0.26,0.561-0.389c3.445-2.371,7.034-4.533,10.74-6.469
					c3.341-1.746,8.309-5.134,12.197-4.957C68.803,187.469,69.729,188.153,69.295,188.829z"/>
				<path style="fill:#592000;" d="M20.017,244.914c-0.004,0-0.008,0-0.013,0c-1.323-0.006-2.903-1.11-3.252-2.27
					c-0.93-3.088,0.316-10.763,0.834-13.627c-3.166,3.032-5.36,5.433-8.092,8.83c-0.893,1.108-2.535,0.885-3.685,0.209
					c-1.115-0.658-2.012-1.884-1.499-3.145c1.783-4.377,5.529-7.682,9.15-10.878c1.033-0.912,2.01-1.774,2.939-2.657
					c2.434-2.314,4.887-4.547,7.3-6.647c-0.213-0.045-0.422-0.09-0.624-0.134c-0.732-0.159-1.363-0.295-1.86-0.356
					c-3.072-0.377-5.835-0.791-8.448-1.265c-1.552-0.281-3.093-0.45-4.584-0.613c-0.822-0.09-1.648-0.181-2.486-0.29
					c-0.8-0.105-1.577-0.661-1.979-1.416c-0.34-0.64-0.365-1.318-0.069-1.908c1.099-2.199,4.005-1.748,5.402-1.531
					c3.087,0.48,6.248,0.838,9.305,1.184c3.414,0.386,6.944,0.786,10.399,1.358c2.043,0.333,8.418-4.877,12.215-7.994
					c1.473-1.21,2.745-2.253,3.53-2.802l0.562-0.39c3.445-2.37,7.071-4.554,10.778-6.492c0.653-0.341,1.368-0.745,2.125-1.173
					c3.13-1.769,7.031-3.973,10.255-3.824c0.483,0.022,1.147,0.363,1.423,0.897c0.18,0.347,0.163,0.717-0.046,1.042l0,0
					c-2.529,3.935-6.619,6.199-10.575,8.391c-1.224,0.678-2.491,1.379-3.674,2.113c-12.102,7.503-20.814,14.061-30.033,22.612
					c0.038,1.958-0.496,4.367-1.012,6.699c-0.391,1.764-0.76,3.429-0.879,4.843c-0.253,3.006-0.666,6.847-1.617,9.898
					C21.538,244.441,20.903,244.914,20.017,244.914z M18.728,226.948l-0.229,1.114c-0.568,2.758-1.979,11.318-1.059,14.374
					c0.256,0.85,1.576,1.755,2.568,1.76c0.003,0,0.006,0,0.009,0c0.568,0,0.93-0.272,1.104-0.831
					c0.931-2.985,1.337-6.775,1.588-9.745c0.123-1.461,0.497-3.15,0.893-4.938c0.521-2.355,1.061-4.789,0.991-6.684l-0.006-0.165
					l0.121-0.111c9.298-8.638,18.066-15.246,30.262-22.806c1.199-0.743,2.473-1.449,3.705-2.132
					c3.878-2.148,7.887-4.368,10.318-8.15l0,0c0.07-0.108,0.074-0.205,0.012-0.323c-0.141-0.273-0.555-0.498-0.817-0.511
					c-3.017-0.151-6.819,2.008-9.869,3.732c-0.765,0.432-1.487,0.84-2.146,1.185c-3.681,1.924-7.281,4.093-10.703,6.447
					l-0.559,0.387c-0.763,0.533-2.025,1.568-3.485,2.768c-5.482,4.502-10.57,8.506-12.789,8.148
					c-3.436-0.569-6.956-0.967-10.361-1.353c-3.064-0.346-6.233-0.705-9.335-1.187c-1.965-0.307-3.888-0.38-4.648,1.142
					c-0.254,0.508-0.07,1.001,0.062,1.249c0.291,0.548,0.869,0.966,1.437,1.04c0.833,0.109,1.654,0.199,2.472,0.288
					c1.503,0.164,3.057,0.335,4.633,0.62c2.599,0.471,5.35,0.883,8.408,1.259c0.529,0.065,1.175,0.205,1.924,0.367
					c0.423,0.091,0.87,0.188,1.327,0.278l0.725,0.141l-0.558,0.483c-2.581,2.231-5.214,4.62-7.825,7.102
					c-0.939,0.892-1.92,1.758-2.959,2.675c-3.56,3.141-7.24,6.389-8.961,10.61c-0.352,0.863,0.349,1.754,1.198,2.254
					c0.891,0.526,2.136,0.737,2.76-0.04c2.98-3.706,5.326-6.236,8.965-9.667L18.728,226.948z"/>
			</g>
			<path style="fill:#A74714;" d="M69.295,188.829c-3.265,5.08-9.182,7.322-14.136,10.393c-2.33,1.445-4.55,2.864-6.696,4.285
				c-1.337-1.346-2.64-2.725-3.884-4.159c0.042-0.03,0.088-0.064,0.127-0.092c0.187-0.13,0.374-0.26,0.561-0.389
				c3.445-2.371,7.034-4.533,10.74-6.47c3.341-1.746,8.309-5.134,12.197-4.957C68.803,187.469,69.729,188.153,69.295,188.829z"/>
			<g>
				<path style="fill:#A74714;" d="M161.767,204.292c2.946-5.271,8.714-7.873,13.47-11.243c11-7.796,19.451-14.811,28.749-24.58
					c-0.329-3.349,1.088-8.349,1.164-11.759c0.07-3.124,0.254-6.883,0.995-9.902c0.549-2.234,3.854-0.862,4.416,0.662
					c1.238,3.35,0.072,13.001-0.153,14.587c3.286-3.505,5.51-6.188,8.322-10.163c1.309-1.851,5.453,0.117,4.721,2.289
					c-1.907,5.653-7.202,9.87-11.156,14.123c-2.403,2.584-4.862,5.115-7.385,7.583c1.258,0.166,2.442,0.391,3.259,0.441
					c2.829,0.172,5.674,0.408,8.49,0.741c2.427,0.287,4.725,0.304,7.13,0.468c1.262,0.086,2.465,1.464,1.943,2.692
					c-0.8,1.884-3.156,1.808-4.934,1.643c-6.593-0.612-13.228-0.645-19.819-1.323c-3.032-0.312-12.47,9.565-15.311,11.82
					c-3.454,2.741-7.083,5.262-10.858,7.541c-3.227,1.948-7.978,5.635-11.869,5.698
					C162.342,205.618,161.375,204.993,161.767,204.292z"/>
				<path style="fill:#592000;" d="M162.928,205.968c-0.481,0-1.152-0.299-1.456-0.808c-0.2-0.335-0.207-0.706-0.018-1.043
					c2.282-4.083,6.225-6.595,10.038-9.025c1.181-0.752,2.402-1.53,3.537-2.336c11.619-8.235,19.912-15.317,28.584-24.416
					c-0.157-1.951,0.227-4.389,0.599-6.748c0.281-1.785,0.547-3.471,0.579-4.889c0.068-3.018,0.243-6.878,1.005-9.979
					c0.216-0.881,0.826-1.393,1.717-1.444c1.332-0.069,2.966,0.93,3.385,2.067c1.119,3.027,0.347,10.761,0.005,13.651
					c2.974-3.221,5.017-5.752,7.534-9.31c0.822-1.163,2.476-1.041,3.664-0.436c1.155,0.587,2.125,1.757,1.69,3.047
					c-1.511,4.478-5.046,8.007-8.465,11.421c-0.975,0.973-1.896,1.893-2.768,2.832c-2.275,2.447-4.586,4.827-6.876,7.083
					c0.215,0.032,0.425,0.064,0.63,0.095c0.74,0.113,1.379,0.21,1.88,0.241c3.096,0.189,5.879,0.432,8.51,0.744
					c1.565,0.185,3.112,0.258,4.608,0.329c0.829,0.04,1.66,0.079,2.505,0.137c0.805,0.055,1.614,0.562,2.061,1.291
					c0.38,0.617,0.446,1.292,0.188,1.9c-0.962,2.263-3.891,1.991-5.297,1.861c-3.112-0.289-6.289-0.451-9.361-0.608
					c-3.432-0.176-6.979-0.357-10.462-0.716c-0.039-0.004-0.079-0.006-0.121-0.006c-2.184,0-8.049,5.454-11.581,8.737
					c-1.395,1.297-2.6,2.417-3.35,3.013c-3.458,2.744-7.123,5.29-10.894,7.567c-0.632,0.381-1.32,0.829-2.05,1.303
					c-3.016,1.958-6.769,4.395-9.999,4.447C162.941,205.968,162.935,205.968,162.928,205.968z M207.65,145.993
					c-0.033,0-0.065,0.001-0.098,0.003c-0.572,0.032-0.919,0.326-1.059,0.898c-0.745,3.033-0.918,6.843-0.984,9.823
					c-0.033,1.468-0.302,3.177-0.588,4.986c-0.375,2.381-0.764,4.844-0.578,6.73l0.015,0.163l-0.113,0.119
					c-8.748,9.191-17.092,16.326-28.801,24.625c-1.151,0.815-2.379,1.598-3.567,2.355c-3.737,2.382-7.603,4.845-9.796,8.77l0,0
					c-0.063,0.112-0.06,0.209,0.008,0.323c0.156,0.261,0.576,0.459,0.839,0.459c0.003,0,0.006,0,0.008,0
					c3.023-0.048,6.681-2.423,9.619-4.331c0.737-0.479,1.433-0.93,2.07-1.315c3.746-2.262,7.387-4.79,10.82-7.515
					c0.728-0.578,1.923-1.689,3.307-2.975c5.196-4.831,10.048-9.169,12.264-8.92c3.464,0.356,7.003,0.537,10.425,0.712
					c3.08,0.157,6.265,0.321,9.391,0.61c1.981,0.184,3.905,0.138,4.57-1.426c0.222-0.523,0.008-1.004-0.139-1.244
					c-0.325-0.529-0.927-0.91-1.499-0.949c-0.84-0.058-1.666-0.097-2.49-0.136c-1.509-0.072-3.069-0.146-4.658-0.334
					c-2.617-0.309-5.388-0.551-8.469-0.74c-0.532-0.032-1.187-0.132-1.945-0.248c-0.427-0.065-0.878-0.134-1.34-0.195l-0.732-0.097
					l0.528-0.516c2.453-2.399,4.934-4.946,7.373-7.57c0.882-0.948,1.807-1.872,2.787-2.851c3.36-3.354,6.834-6.823,8.292-11.142
					c0.298-0.883-0.456-1.729-1.335-2.177c-0.922-0.469-2.176-0.603-2.752,0.211c-2.746,3.881-4.932,6.551-8.353,10.201l-0.779,0.83
					l0.161-1.126c0.397-2.787,1.281-11.415,0.173-14.412C209.927,146.789,208.632,145.993,207.65,145.993z"/>
			</g>
			<path style="fill:#A74714;" d="M187.732,183.591c-3.893,3.183-7.978,6.255-12.496,9.457c-4.756,3.371-10.523,5.972-13.47,11.243
				c-0.392,0.701,0.575,1.327,1.174,1.317c3.891-0.063,8.642-3.749,11.869-5.698c3.775-2.279,7.404-4.799,10.858-7.541
				c1.167-0.926,3.445-3.136,5.936-5.399C190.324,185.832,189.034,184.705,187.732,183.591z"/>
		</g>
		<g>
			<g>
				<g>
					<path style="fill:#FFFFFF;" d="M194.102,298.673c-3.548-1.538-7.386-2.212-11.173-2.885c-4.426-0.786-8.887-1.379-13.359-1.833
						c-9.225-0.936-18.5-1.287-27.768-1.423c-9.36-0.137-18.728-0.127-28.089-0.023c-9.736,0.109-19.477,0.411-29.181,1.237
						c-1.016,0.086-2.031,0.181-3.046,0.28c-6.398-0.707-12.948-0.266-19.269,0.724c-3.768,0.59-7.475,1.451-11.18,2.346
						c-3.409,0.823-6.806,1.718-10.124,2.855c-5.453,1.868-11.763,4.581-14.977,9.665c-1.319,2.088-1.609,4.525-0.093,6.59
						c1.742,2.374,4.743,3.714,7.407,4.74c3.892,1.499,7.996,2.443,12.084,3.221c8.486,1.615,17.119,2.457,25.73,3.048
						c11.04,0.758,22.093,1.373,33.163,1.336c18.551-0.062,37.034-1.75,55.48-3.579c8.201-0.813,16.438-1.882,24.374-4.173
						c3.842-1.109,7.613-2.508,11.171-4.341c2.824-1.455,6.063-3.366,7.313-6.467C204.752,304.568,198.204,300.452,194.102,298.673z
						"/>
					<path style="fill:#8D9092;" d="M103.283,328.912c-11.162,0-22.081-0.641-32.241-1.339c-7.086-0.487-16.42-1.273-25.774-3.053
						c-3.436-0.654-7.922-1.613-12.146-3.239c-2.895-1.115-5.815-2.475-7.568-4.863c-1.483-2.02-1.454-4.569,0.079-6.995
						c3.303-5.224,9.838-7.988,15.163-9.812c3.608-1.237,7.323-2.18,10.157-2.865c3.551-0.858,7.342-1.746,11.209-2.351
						c7.204-1.128,13.528-1.366,19.326-0.73c1.004-0.097,2.008-0.191,3.013-0.276c8.406-0.716,17.687-1.11,29.207-1.238
						c10.158-0.114,19.348-0.106,28.098,0.022c10.97,0.161,19.803,0.614,27.799,1.425c4.787,0.486,9.166,1.087,13.386,1.837
						l0.089,0.015c3.739,0.664,7.605,1.351,11.164,2.893c2.677,1.16,11.211,5.439,8.656,11.782
						c-1.249,3.101-4.334,5.029-7.481,6.651c-3.334,1.718-7.01,3.146-11.237,4.367c-8.173,2.36-16.575,3.406-24.438,4.186
						c-18.675,1.852-36.973,3.519-55.514,3.582C103.915,328.912,103.598,328.912,103.283,328.912z M74.958,294.037
						c-3.932,0-8.129,0.355-12.685,1.068c-3.84,0.601-7.615,1.485-11.151,2.34c-2.818,0.68-6.512,1.619-10.092,2.845
						c-5.214,1.786-11.606,4.482-14.789,9.518c-1.367,2.162-1.406,4.417-0.107,6.186c1.643,2.239,4.454,3.542,7.247,4.618
						c4.17,1.605,8.616,2.555,12.023,3.204c9.316,1.773,18.622,2.557,25.688,3.042c10.434,0.717,21.668,1.368,33.137,1.336
						c18.509-0.062,36.789-1.728,55.445-3.578c7.829-0.776,16.193-1.817,24.31-4.161c4.182-1.207,7.815-2.618,11.106-4.315
						c3.024-1.558,5.983-3.398,7.144-6.281c2.313-5.741-5.749-9.76-8.276-10.855c-3.481-1.509-7.305-2.188-11.003-2.845l-0.09-0.016
						c-4.202-0.747-8.563-1.345-13.333-1.83c-7.974-0.809-16.788-1.26-27.737-1.421c-8.743-0.128-17.928-0.136-28.078-0.022
						c-11.503,0.128-20.767,0.521-29.155,1.235c-1.014,0.086-2.028,0.181-3.041,0.28c-0.025,0.001-0.051,0.001-0.074-0.001
						C79.359,294.152,77.202,294.037,74.958,294.037z"/>
				</g>
				<path style="opacity:0.21;fill:#616566;" d="M183.492,297.847c-3.079-1.335-6.409-1.92-9.695-2.503
					c-3.841-0.682-7.711-1.196-11.592-1.59c-8.004-0.813-16.052-1.117-24.094-1.235c-8.122-0.119-16.25-0.111-24.372-0.02
					c-8.448,0.094-16.9,0.356-25.32,1.073c-0.881,0.075-1.762,0.157-2.643,0.242c-5.552-0.613-11.235-0.23-16.719,0.628
					c-3.27,0.512-6.486,1.259-9.701,2.035c-2.958,0.714-5.905,1.491-8.785,2.477c-4.732,1.621-10.207,3.975-12.995,8.386
					c-1.145,1.812-1.396,3.926-0.081,5.718c1.512,2.06,4.116,3.223,6.427,4.113c3.377,1.3,6.938,2.12,10.486,2.795
					c7.363,1.401,14.854,2.132,22.326,2.645c9.579,0.658,19.17,1.192,28.775,1.16c16.097-0.054,32.134-1.519,48.14-3.106
					c7.116-0.706,14.263-1.633,21.149-3.621c3.334-0.962,6.606-2.176,9.693-3.767c2.45-1.263,5.261-2.92,6.345-5.611
					C192.734,302.962,187.052,299.39,183.492,297.847z"/>
				<g>
					<ellipse style="fill:#FFFFFF;" cx="116.398" cy="236.024" rx="76.973" ry="72.785"/>
					<path style="fill:#8D9092;" d="M116.398,309.168c-42.641,0-77.332-32.812-77.332-73.144s34.691-73.144,77.332-73.144
						s77.332,32.812,77.332,73.144S159.039,309.168,116.398,309.168z M116.398,163.598c-42.245,0-76.614,32.49-76.614,72.426
						s34.369,72.426,76.614,72.426c42.246,0,76.615-32.49,76.615-72.426S158.643,163.598,116.398,163.598z"/>
				</g>
				<path style="opacity:0.21;fill:#616566;" d="M116.398,163.239c-42.511,0-76.973,32.587-76.973,72.785
					c0,40.198,34.462,72.785,76.973,72.785c42.511,0,76.973-32.587,76.973-72.785C193.371,195.826,158.909,163.239,116.398,163.239z
					 M153.718,236.338c-0.367,5.143-1.369,10.268-3.103,15.128c-1.708,4.786-4.133,9.337-7.637,13.053
					c-0.218,0.231-0.454,0.443-0.678,0.668c-1.426,1.906-3.039,3.668-4.767,5.244c-3.681,3.357-8.016,5.935-12.595,7.864
					c-4.941,2.081-10.18,3.417-15.488,4.135c-12.098,1.638-25.823-0.061-36.884-5.312c-16.588-7.873-24.891-24.214-25.507-42.117
					c-0.419-12.166,1.817-30.71,11.749-39.186c3.72-3.175,8.094-3.17,12.495-1.565c4.93,1.798,9.837,3.623,15.052,4.413
					c9.533,1.443,19.24,0.975,28.826,0.477c2.388-0.124,4.776-0.251,7.166-0.355c2.135-0.092,4.284-0.224,6.422-0.176
					c2.52,0.057,5.045,0.445,7.436,1.253c4.371,1.477,8.08,4.329,10.824,8.016c2.853,3.834,4.628,8.402,5.658,13.043
					C153.805,225.964,154.085,231.191,153.718,236.338z"/>
				<g>
					<path style="fill:#888A8C;" d="M108.297,304.217c-1.66-1.678-4.031-2.744-6.374-2.947c-1.156-0.1-2.327-0.004-3.457,0.257
						c-1.141,0.263-2.176,0.73-3.21,1.26c0.246-0.905,0.403-1.828,0.378-2.778c-0.051-1.912-0.825-3.81-1.995-5.308
						c-1.133-1.451-2.632-2.561-4.221-3.468c-1.742-0.994-3.609-1.76-5.545-2.284c-7.799-2.112-16.429-0.564-23.528,3.089
						c-3.441,1.771-6.725,4.11-9.249,7.065c-1.852,2.168-3.354,4.934-3.127,7.758c-1.334-0.75-3.276-0.23-4.549,0.34
						c-1.723,0.771-3.423,2.058-4.33,3.747c-0.388,0.724-0.625,1.533-0.518,2.358c0.11,0.857,0.62,1.582,1.27,2.127
						c1.687,1.413,4.185,1.653,6.292,1.441c1.284-0.129,2.566-0.448,3.732-1.009c0.551-0.265,1.083-0.583,1.556-0.972
						c0.392-0.323,0.814-0.7,1.006-1.18c0.03,0.023,0.059,0.049,0.089,0.072c1.58,1.222,3.375,2.153,5.261,2.804
						c4.312,1.487,9.134,1.606,13.638,1.222c2.377-0.203,4.737-0.572,7.065-1.093c2.227-0.498,4.46-1.097,6.588-1.926
						c2.601-1.013,5.041-2.533,6.877-4.601c-0.12,0.465-0.161,0.945-0.071,1.415c0.168,0.882,0.821,1.551,1.573,1.991
						c2.026,1.186,4.708,1.28,6.99,1.186c2.291-0.095,4.848-0.377,6.732-1.805c1.339-1.016,2.318-2.49,2.604-4.157
						C110.063,307.132,109.496,305.429,108.297,304.217z"/>
					<path style="fill:#FFFFFF;" d="M52.02,313.484c-0.333,0.288-0.6,0.638-0.94,0.92c-0.362,0.301-0.763,0.56-1.182,0.774
						c-0.909,0.465-1.894,0.762-2.9,0.931c-1.948,0.328-4.185,0.229-5.934-0.777c-1.408-0.81-2.191-2.209-1.579-3.793
						c0.599-1.55,2.058-2.765,3.484-3.533c1.559-0.841,3.367-1.31,5.06-0.63c0.093,0.592,0.258,1.186,0.523,1.775
						c0.759,1.685,2.101,3.117,3.534,4.288C52.062,313.453,52.039,313.468,52.02,313.484z"/>
					<path style="fill:#FFFFFF;" d="M87.25,313.108c-1.813,0.971-3.768,1.619-5.742,2.175c-2.196,0.619-4.429,1.108-6.686,1.451
						c-4.493,0.682-9.196,0.837-13.681-0.005c-3.861-0.724-7.534-2.487-10.192-5.428c-1.293-1.431-2.286-3.126-2.324-5.102
						c-0.034-1.775,0.641-3.464,1.579-4.941c1.975-3.11,5.028-5.562,8.138-7.469c6.557-4.019,14.726-6.021,22.378-4.852
						c3.691,0.564,7.396,1.906,10.371,4.205c1.416,1.094,2.628,2.46,3.33,4.122c0.876,2.075,0.851,4.227,0.219,6.366
						c-0.205,0.696-0.453,1.378-0.706,2.058c-0.581,1.317-1.218,2.613-2.127,3.72C90.556,310.933,88.988,312.178,87.25,313.108z"/>
					<path style="fill:#FFFFFF;" d="M107.279,312.042c-1.58,1.509-3.876,1.829-5.967,1.971c-2.165,0.147-4.522,0.095-6.566-0.717
						c-0.808-0.321-1.64-0.827-2.006-1.654c-0.456-1.03,0.046-2.116,0.502-3.046c0.037-0.074,0.041-0.13,0.03-0.174
						c0.335-0.534,0.637-1.094,0.893-1.686c0.44-1.02,0.777-2.079,1.153-3.123c0.072-0.202-0.09-0.24-0.247-0.189
						c0.042-0.132,0.076-0.266,0.115-0.399c3.648-1.645,7.977-1.597,11.288,0.776c1.42,1.018,2.538,2.416,2.564,4.235
						C109.062,309.558,108.369,311,107.279,312.042z"/>
					<path style="opacity:0.21;fill:#616566;" d="M108.297,304.217c-1.66-1.678-4.031-2.744-6.374-2.947
						c-1.156-0.1-2.327-0.004-3.457,0.257c-1.14,0.263-2.176,0.73-3.209,1.26c0.246-0.905,0.403-1.828,0.378-2.778
						c-0.051-1.912-0.825-3.81-1.995-5.308c-1.133-1.451-2.632-2.561-4.221-3.468c-1.742-0.994-3.609-1.76-5.545-2.284
						c-7.799-2.112-16.429-0.564-23.528,3.089c-3.441,1.771-6.725,4.11-9.249,7.065c-1.852,2.168-3.354,4.934-3.127,7.758
						c-1.334-0.75-3.276-0.23-4.549,0.34c-1.723,0.771-3.423,2.058-4.33,3.747c-0.388,0.724-0.625,1.533-0.518,2.358
						c0.11,0.857,0.62,1.582,1.27,2.127c1.687,1.413,4.185,1.653,6.292,1.441c1.284-0.129,2.566-0.448,3.732-1.009
						c0.551-0.265,1.083-0.583,1.556-0.972c0.392-0.323,0.814-0.7,1.006-1.18c0.03,0.023,0.059,0.049,0.089,0.072
						c1.58,1.222,3.375,2.153,5.261,2.804c4.312,1.487,9.134,1.606,13.638,1.222c2.377-0.203,4.737-0.572,7.065-1.093
						c2.227-0.498,4.46-1.097,6.588-1.926c2.601-1.013,5.041-2.533,6.877-4.601c-0.12,0.465-0.16,0.945-0.071,1.415
						c0.168,0.882,0.821,1.551,1.573,1.991c2.026,1.186,4.708,1.28,6.99,1.186c2.291-0.095,4.848-0.377,6.732-1.805
						c1.339-1.016,2.318-2.49,2.604-4.157C110.063,307.132,109.496,305.429,108.297,304.217z M45.647,313.958
						c-0.774,0.359-1.659,0.473-2.478,0.196c-0.704-0.238-1.328-0.726-1.689-1.381c-0.212-0.384-0.312-0.817-0.308-1.25
						c-0.031-0.066-0.048-0.141-0.028-0.23c0.03-0.13,0.077-0.254,0.118-0.38c0.019-0.065,0.026-0.131,0.051-0.194
						c0.051-0.128,0.114-0.247,0.184-0.361c0.242-0.467,0.571-0.884,1.019-1.19c0.609-0.417,1.378-0.588,2.109-0.552
						c1.175,0.059,2.54,0.631,3.044,1.77C48.337,311.896,46.927,313.364,45.647,313.958z M88.661,297.967
						c-0.316,1.585-1.303,2.975-2.406,4.117c-1.139,1.179-2.478,2.176-3.882,3.018c-3.43,2.06-7.329,3.265-11.261,3.911
						c-3.667,0.602-7.525,0.84-11.229,0.431c-3.032-0.335-6.388-1.347-7.855-4.28c-0.513-1.025-0.721-2.12-0.5-3.253
						c0.224-1.149,0.854-2.18,1.589-3.073c1.753-2.131,4.221-3.679,6.636-4.953c0.89-0.47,1.807-0.911,2.739-1.32
						c0.177-0.108,0.349-0.225,0.53-0.327c3.304-1.861,7.137-2.736,10.913-2.797c3.349-0.054,6.844,0.56,9.957,1.822
						c1.394,0.565,2.811,1.317,3.775,2.504C88.626,294.95,88.957,296.48,88.661,297.967z M101.561,310.588
						c-1.652,0.663-3.895,0.781-5.41-0.288c-1.732-1.223-1.704-3.739-0.463-5.304c0.873-1.102,2.209-1.824,3.615-2.119
						c0.771-0.328,1.608-0.484,2.46-0.376c1.381,0.175,2.746,1.098,3.202,2.451C105.745,307.262,103.579,309.778,101.561,310.588z"
						/>
				</g>
				<g>
					<path style="fill:#888A8C;" d="M182.957,303.901c-1.407-1.422-3.416-2.325-5.401-2.497c-0.979-0.085-1.972-0.004-2.929,0.217
						c-0.967,0.223-1.844,0.619-2.72,1.067c0.209-0.767,0.342-1.549,0.32-2.354c-0.043-1.62-0.699-3.228-1.691-4.498
						c-0.961-1.23-2.231-2.17-3.577-2.939c-1.476-0.843-3.058-1.491-4.698-1.936c-6.609-1.79-13.921-0.478-19.937,2.618
						c-2.916,1.5-5.698,3.482-7.838,5.987c-1.569,1.837-2.842,4.181-2.65,6.574c-1.13-0.636-2.776-0.195-3.854,0.288
						c-1.46,0.653-2.901,1.744-3.669,3.175c-0.329,0.613-0.529,1.299-0.439,1.998c0.093,0.726,0.525,1.341,1.076,1.802
						c1.43,1.197,3.547,1.401,5.331,1.221c1.088-0.11,2.175-0.38,3.163-0.855c0.467-0.225,0.918-0.494,1.318-0.824
						c0.332-0.273,0.689-0.593,0.852-1c0.025,0.02,0.05,0.041,0.076,0.061c1.339,1.035,2.86,1.825,4.458,2.376
						c3.654,1.26,7.74,1.361,11.556,1.035c2.014-0.172,4.014-0.485,5.986-0.926c1.887-0.422,3.779-0.93,5.583-1.632
						c2.204-0.858,4.271-2.146,5.827-3.898c-0.102,0.394-0.136,0.801-0.06,1.199c0.143,0.747,0.695,1.314,1.333,1.687
						c1.717,1.004,3.989,1.085,5.923,1.005c1.941-0.08,4.108-0.319,5.704-1.53c1.135-0.861,1.964-2.11,2.207-3.522
						C184.454,306.371,183.973,304.928,182.957,303.901z"/>
					<path style="fill:#FFFFFF;" d="M135.27,311.754c-0.282,0.244-0.508,0.54-0.796,0.78c-0.307,0.255-0.646,0.474-1.002,0.656
						c-0.77,0.394-1.605,0.645-2.457,0.789c-1.65,0.278-3.546,0.194-5.028-0.658c-1.193-0.686-1.856-1.872-1.338-3.214
						c0.508-1.314,1.744-2.343,2.952-2.994c1.321-0.712,2.853-1.11,4.287-0.534c0.079,0.502,0.218,1.005,0.443,1.504
						c0.643,1.428,1.781,2.641,2.995,3.634C135.305,311.727,135.286,311.74,135.27,311.754z"/>
					<path style="fill:#FFFFFF;" d="M165.123,311.435c-1.537,0.823-3.193,1.372-4.866,1.843c-1.861,0.525-3.753,0.939-5.665,1.229
						c-3.808,0.578-7.793,0.709-11.593-0.004c-3.271-0.614-6.384-2.107-8.637-4.599c-1.096-1.212-1.937-2.649-1.97-4.323
						c-0.029-1.504,0.543-2.935,1.338-4.187c1.674-2.635,4.26-4.713,6.896-6.329c5.556-3.406,12.479-5.102,18.963-4.112
						c3.128,0.478,6.268,1.615,8.788,3.563c1.2,0.927,2.227,2.085,2.822,3.493c0.742,1.759,0.721,3.582,0.186,5.394
						c-0.174,0.589-0.384,1.167-0.598,1.744c-0.492,1.116-1.032,2.214-1.802,3.152C167.924,309.592,166.595,310.648,165.123,311.435
						z"/>
					<path style="fill:#FFFFFF;" d="M182.095,310.532c-1.339,1.278-3.284,1.55-5.056,1.67c-1.835,0.124-3.832,0.081-5.564-0.607
						c-0.685-0.272-1.39-0.701-1.7-1.401c-0.386-0.873,0.039-1.793,0.425-2.581c0.031-0.063,0.035-0.11,0.026-0.148
						c0.284-0.453,0.54-0.927,0.757-1.429c0.373-0.864,0.659-1.762,0.977-2.647c0.061-0.171-0.076-0.203-0.209-0.16
						c0.036-0.112,0.065-0.225,0.098-0.338c3.091-1.394,6.759-1.353,9.565,0.657c1.204,0.862,2.151,2.047,2.173,3.589
						C183.605,308.427,183.019,309.649,182.095,310.532z"/>
					<path style="opacity:0.21;fill:#616566;" d="M182.957,303.901c-1.407-1.422-3.416-2.325-5.401-2.497
						c-0.98-0.085-1.972-0.004-2.929,0.217c-0.967,0.223-1.844,0.619-2.72,1.067c0.209-0.767,0.342-1.549,0.32-2.354
						c-0.043-1.62-0.699-3.228-1.691-4.498c-0.961-1.23-2.231-2.17-3.577-2.939c-1.476-0.843-3.058-1.491-4.698-1.936
						c-6.609-1.79-13.921-0.478-19.937,2.618c-2.916,1.5-5.698,3.482-7.838,5.987c-1.569,1.837-2.842,4.181-2.65,6.574
						c-1.13-0.636-2.776-0.195-3.854,0.288c-1.46,0.653-2.901,1.744-3.669,3.175c-0.329,0.613-0.529,1.299-0.439,1.998
						c0.093,0.726,0.525,1.341,1.076,1.802c1.43,1.197,3.547,1.401,5.331,1.221c1.088-0.11,2.175-0.38,3.163-0.855
						c0.467-0.225,0.918-0.494,1.318-0.824c0.332-0.273,0.689-0.593,0.852-1c0.025,0.02,0.05,0.041,0.076,0.061
						c1.339,1.035,2.86,1.825,4.458,2.376c3.654,1.26,7.74,1.361,11.556,1.035c2.014-0.172,4.014-0.485,5.986-0.926
						c1.887-0.422,3.779-0.93,5.583-1.632c2.204-0.858,4.271-2.146,5.827-3.898c-0.102,0.394-0.136,0.801-0.06,1.199
						c0.143,0.747,0.695,1.314,1.333,1.687c1.717,1.004,3.989,1.085,5.923,1.005c1.941-0.08,4.108-0.319,5.704-1.53
						c1.135-0.861,1.964-2.11,2.206-3.522C184.454,306.371,183.973,304.928,182.957,303.901z M129.87,312.155
						c-0.656,0.304-1.406,0.401-2.1,0.166c-0.596-0.202-1.125-0.615-1.431-1.17c-0.179-0.326-0.265-0.693-0.261-1.059
						c-0.027-0.056-0.041-0.12-0.024-0.195c0.025-0.111,0.065-0.215,0.1-0.322c0.016-0.055,0.022-0.111,0.043-0.165
						c0.043-0.109,0.097-0.209,0.156-0.306c0.205-0.396,0.484-0.749,0.864-1.008c0.516-0.353,1.167-0.499,1.787-0.467
						c0.996,0.05,2.152,0.535,2.579,1.5C132.149,310.408,130.955,311.652,129.87,312.155z M166.318,298.606
						c-0.268,1.343-1.104,2.521-2.039,3.489c-0.965,0.999-2.1,1.843-3.289,2.557c-2.907,1.746-6.21,2.767-9.542,3.314
						c-3.107,0.51-6.376,0.712-9.515,0.365c-2.569-0.284-5.413-1.142-6.656-3.626c-0.434-0.868-0.611-1.797-0.423-2.757
						c0.19-0.973,0.724-1.847,1.346-2.604c1.486-1.806,3.576-3.117,5.623-4.197c0.755-0.398,1.532-0.772,2.321-1.118
						c0.15-0.092,0.296-0.19,0.449-0.277c2.8-1.577,6.048-2.319,9.247-2.37c2.838-0.046,5.8,0.475,8.437,1.544
						c1.181,0.479,2.382,1.116,3.199,2.122C166.289,296.048,166.569,297.345,166.318,298.606z M177.249,309.3
						c-1.4,0.562-3.301,0.662-4.585-0.244c-1.468-1.036-1.444-3.168-0.393-4.494c0.74-0.934,1.872-1.546,3.064-1.796
						c0.654-0.278,1.363-0.411,2.085-0.319c1.17,0.148,2.327,0.93,2.713,2.076C180.794,306.482,178.959,308.614,177.249,309.3z"/>
				</g>
				<g>
					
						<ellipse transform="matrix(0.1602 -0.9871 0.9871 0.1602 -17.1533 213.874)" style="fill:#FFFFFF;" cx="117.113" cy="117.018" rx="64.057" ry="64.057"/>
					<path style="fill:#8D9092;" d="M117.113,181.434c-35.519,0-64.417-28.897-64.417-64.416c0-35.519,28.897-64.416,64.417-64.416
						c35.519,0,64.416,28.897,64.416,64.416C181.529,152.537,152.632,181.434,117.113,181.434z M117.113,53.319
						c-35.124,0-63.699,28.575-63.699,63.698c0,35.124,28.575,63.699,63.699,63.699c35.123,0,63.698-28.575,63.698-63.699
						C180.811,81.894,152.236,53.319,117.113,53.319z"/>
				</g>
				<path style="opacity:0.21;fill:#616566;" d="M117.113,52.96c-35.378,0-64.057,28.679-64.057,64.057s28.679,64.057,64.057,64.057
					c35.378,0,64.057-28.68,64.057-64.057S152.49,52.96,117.113,52.96z M156.686,129.119c-4.758,15.375-19.529,24.718-35.6,27.364
					c-17.253,2.841-37.945-0.255-50.852-12.24c-4.084-3.792-7.168-8.28-9.16-13.091c-1.983-4.788-2.887-9.88-2.775-14.94
					c0.113-5.08,1.243-10.154,3.375-14.916c7.407-16.544,24.272-26.531,43.129-26.03c15.173,0.403,31.715,4.161,42.438,15.088
					C157.672,100.985,160.718,116.089,156.686,129.119z"/>
			</g>
			<g>
				<g>
					<path style="fill:#FE0000;" d="M179.503,172.022c-0.781-3.223-1.743-6.382-2.961-9.467c-0.814-2.062-1.48-4.316-2.919-6.049
						c-0.726-0.874-1.659-1.573-2.795-1.788c-1.305-0.247-2.625,0.04-3.868,0.44c-1.278,0.411-2.506,0.963-3.793,1.346
						c-28.393,8.455-59.494,7.477-87.969-0.078c-1.314-0.349-2.5-0.857-3.778-1.268c-1.244-0.4-2.564-0.687-3.869-0.44
						c-1.136,0.215-2.069,0.914-2.795,1.788c-1.44,1.733-2.106,3.988-2.92,6.049c-1.217,3.085-2.18,6.244-2.961,9.467
						c-1.125,4.645-2.408,9.757,0.227,14.141c1.229,2.044,3.072,3.659,4.994,5.032c2.335,1.667,4.88,3.038,7.507,4.184
						c5.322,2.324,10.991,3.771,16.657,4.976c9.886,2.102,20.223,3.819,30.478,3.836c10.407,0.017,21.213-1.674,31.38-3.836
						c5.665-1.205,11.335-2.653,16.657-4.976c2.626-1.147,5.172-2.517,7.507-4.184c1.923-1.373,3.765-2.987,4.994-5.032
						C181.911,181.779,180.629,176.667,179.503,172.022z"/>
					<path style="fill:#B40000;" d="M118.905,204.551c-0.056,0-0.111,0-0.168,0c-11.145-0.018-22.182-2.064-30.552-3.844
						c-5.088-1.082-11.055-2.523-16.725-4.998c-2.835-1.238-5.382-2.658-7.572-4.221c-2.397-1.713-4.015-3.345-5.093-5.139
						c-2.68-4.459-1.419-9.659-0.308-14.246l0.039-0.164c0.834-3.44,1.807-6.552,2.977-9.514c0.149-0.378,0.293-0.763,0.438-1.15
						c0.652-1.739,1.326-3.537,2.538-4.997c0.878-1.057,1.889-1.701,3.005-1.912c1.473-0.281,2.936,0.093,4.046,0.451
						c0.498,0.161,0.983,0.335,1.466,0.51c0.739,0.267,1.503,0.543,2.294,0.753c30.024,7.967,61.195,7.997,87.774,0.081
						c0.69-0.205,1.38-0.466,2.046-0.719c0.576-0.219,1.152-0.437,1.739-0.625c1.109-0.357,2.572-0.731,4.045-0.451
						c1.116,0.211,2.127,0.855,3.005,1.912c1.212,1.459,1.886,3.255,2.537,4.992c0.146,0.388,0.29,0.775,0.44,1.155
						c1.169,2.964,2.142,6.076,2.976,9.514l0.039,0.164c1.112,4.588,2.372,9.787-0.308,14.246c-1.079,1.795-2.697,3.428-5.093,5.139
						c-2.189,1.563-4.737,2.983-7.572,4.221c-5.672,2.476-11.638,3.916-16.725,4.998
						C137.87,203.328,127.921,204.551,118.905,204.551z M68.559,154.985c-0.313,0-0.628,0.025-0.941,0.085
						c-0.947,0.179-1.817,0.74-2.585,1.665c-1.135,1.367-1.788,3.108-2.419,4.791c-0.146,0.391-0.292,0.779-0.443,1.161
						c-1.157,2.931-2.121,6.013-2.946,9.421l-0.04,0.163c-1.132,4.671-2.303,9.501,0.226,13.707
						c1.026,1.707,2.581,3.272,4.895,4.925c2.148,1.535,4.652,2.93,7.441,4.148c5.612,2.449,11.534,3.879,16.588,4.954
						c8.336,1.773,19.325,3.81,30.404,3.828c9.034,0.008,18.956-1.201,31.305-3.828c5.053-1.075,10.975-2.503,16.588-4.954
						c2.789-1.218,5.294-2.613,7.441-4.148c2.313-1.652,3.869-3.217,4.895-4.925c2.529-4.206,1.358-9.036,0.226-13.707l-0.04-0.163
						c-0.825-3.407-1.788-6.488-2.945-9.421c-0.151-0.383-0.298-0.774-0.445-1.166c-0.63-1.682-1.282-3.42-2.417-4.786
						c-0.768-0.925-1.638-1.485-2.585-1.665c-1.314-0.251-2.665,0.097-3.692,0.428c-0.576,0.186-1.141,0.4-1.706,0.613
						c-0.679,0.257-1.38,0.523-2.095,0.736c-26.704,7.95-58.014,7.924-88.163-0.076c-0.822-0.218-1.6-0.499-2.354-0.772
						c-0.475-0.172-0.952-0.344-1.442-0.502C70.527,155.247,69.558,154.985,68.559,154.985z"/>
				</g>
				<path style="fill:#B40000;" d="M179.169,174.802c-2.8,2.506-5.782,4.906-9.077,6.733c-2.529,1.402-5.689,2.771-8.633,2.009
					c-3.964-1.026-4.712-5.322-5.086-8.826c-0.289-2.702-0.75-5.374-1.052-8.075c-0.293-2.63-0.474-5.271-0.673-7.909
					c-9.012,2.057-18.236,3.221-27.51,3.589c-0.141,3.705-0.475,7.403-0.8,11.095c-0.444,5.032-0.249,10.079-1.076,15.084
					c-0.59,3.571-1.433,7.686-4.836,9.637c-2.754,1.579-6.192,1.4-9.24,1.121c-9.279-0.849-18.471-2.243-27.319-5.262
					c-4.283-1.462-8.555-3.232-12.475-5.506c-2.98-1.729-5.701-3.927-7.812-6.664c-2.421-3.138-3.813-6.76-4.512-10.552
					c-0.063,0.249-0.132,0.496-0.192,0.745c-1.125,4.645-2.408,9.757,0.227,14.141c1.229,2.044,3.072,3.659,4.994,5.032
					c2.335,1.667,4.88,3.038,7.507,4.184c5.322,2.324,10.991,3.771,16.657,4.976c9.885,2.102,20.224,3.819,30.478,3.836
					c10.407,0.017,21.213-1.674,31.38-3.836c5.665-1.205,11.335-2.653,16.657-4.976c2.626-1.147,5.172-2.517,7.507-4.184
					c1.923-1.373,3.765-2.987,4.994-5.032c2.256-3.754,1.639-8.04,0.709-12.111C179.713,174.302,179.444,174.556,179.169,174.802z"
					/>
				<g>
					<polygon style="fill:#FE0000;" points="128.185,161.316 132.331,273.303 165.521,271.141 152.621,158.297 					"/>
					<path style="fill:#B40000;" d="M132.332,273.662c-0.088,0-0.174-0.033-0.241-0.093c-0.072-0.065-0.115-0.156-0.118-0.253
						l-4.146-111.987c-0.006-0.186,0.13-0.347,0.315-0.369l24.436-3.019c0.093-0.015,0.191,0.015,0.266,0.074
						c0.075,0.059,0.123,0.146,0.135,0.241l12.9,112.844c0.011,0.097-0.018,0.195-0.081,0.27c-0.063,0.076-0.154,0.122-0.252,0.128
						l-33.19,2.162C132.347,273.662,132.339,273.662,132.332,273.662z M128.556,161.632l4.121,111.289l32.445-2.114l-12.816-112.11
						L128.556,161.632z"/>
				</g>
				<g>
					<path style="fill:#4264AF;" d="M135.44,281.143c-0.372,0-0.686-0.286-0.715-0.663l-0.771-9.92
						c-0.031-0.395,0.265-0.74,0.66-0.771c0.398-0.034,0.74,0.266,0.771,0.66l0.771,9.92c0.031,0.395-0.265,0.74-0.66,0.771
						C135.477,281.142,135.458,281.143,135.44,281.143z"/>
					<path style="fill:#4264AF;" d="M139.273,280.602c-0.372,0-0.686-0.286-0.715-0.663l-0.77-9.92
						c-0.031-0.395,0.265-0.74,0.66-0.771c0.402-0.033,0.74,0.266,0.771,0.66l0.77,9.92c0.031,0.395-0.265,0.74-0.66,0.771
						C139.31,280.601,139.292,280.602,139.273,280.602z"/>
					<path style="fill:#4264AF;" d="M143.681,280.421c-0.372,0-0.686-0.286-0.715-0.663l-0.771-9.92
						c-0.031-0.395,0.265-0.74,0.66-0.771c0.402-0.033,0.74,0.266,0.771,0.66l0.77,9.92c0.031,0.396-0.265,0.74-0.66,0.771
						C143.718,280.421,143.699,280.421,143.681,280.421z"/>
					<path style="fill:#4264AF;" d="M147.514,279.881c-0.372,0-0.686-0.286-0.715-0.663l-0.77-9.92
						c-0.031-0.395,0.265-0.74,0.66-0.771c0.407-0.031,0.74,0.266,0.771,0.66l0.77,9.92c0.031,0.396-0.265,0.74-0.66,0.771
						C147.551,279.88,147.532,279.881,147.514,279.881z"/>
					<path style="fill:#4264AF;" d="M151.781,279.825c-0.372,0-0.686-0.286-0.715-0.662l-0.771-9.92
						c-0.031-0.395,0.265-0.74,0.66-0.771c0.384-0.025,0.74,0.265,0.771,0.66l0.771,9.92c0.031,0.395-0.265,0.74-0.66,0.771
						C151.818,279.824,151.8,279.825,151.781,279.825z"/>
					<path style="fill:#4264AF;" d="M155.614,279.283c-0.372,0-0.686-0.286-0.715-0.662l-0.77-9.92
						c-0.031-0.395,0.265-0.74,0.66-0.771c0.401-0.034,0.74,0.266,0.771,0.66l0.77,9.92c0.031,0.395-0.265,0.74-0.66,0.771
						C155.652,279.283,155.633,279.283,155.614,279.283z"/>
					<path style="fill:#4264AF;" d="M160.022,279.103c-0.371,0-0.686-0.286-0.715-0.663l-0.77-9.92
						c-0.031-0.395,0.265-0.74,0.66-0.771c0.402-0.034,0.74,0.266,0.771,0.66l0.771,9.92c0.031,0.395-0.265,0.74-0.66,0.771
						C160.059,279.103,160.04,279.103,160.022,279.103z"/>
					<path style="fill:#4264AF;" d="M163.855,278.562c-0.372,0-0.686-0.286-0.715-0.663l-0.77-9.92
						c-0.031-0.395,0.265-0.74,0.66-0.771c0.406-0.032,0.74,0.266,0.771,0.66l0.77,9.92c0.031,0.395-0.265,0.74-0.66,0.771
						C163.892,278.561,163.873,278.562,163.855,278.562z"/>
				</g>
				<g>
					<path style="fill:#FFFFFF;" d="M70.079,161.62c0,1.33-1.078,2.408-2.408,2.408c-1.33,0-2.408-1.078-2.408-2.408
						c0-1.33,1.078-2.408,2.408-2.408C69.001,159.212,70.079,160.29,70.079,161.62z"/>
					<circle style="fill:#FFFFFF;" cx="86.637" cy="166.336" r="2.408"/>
					<path style="fill:#FFFFFF;" d="M77.085,177.609c0,1.33-1.078,2.408-2.408,2.408c-1.33,0-2.408-1.078-2.408-2.408
						c0-1.33,1.078-2.408,2.408-2.408C76.007,175.201,77.085,176.279,77.085,177.609z"/>
					<circle style="fill:#FFFFFF;" cx="62.012" cy="183.967" r="2.408"/>
					<path style="fill:#FFFFFF;" d="M88.847,193.246c0,1.33-1.078,2.408-2.408,2.408c-1.33,0-2.408-1.078-2.408-2.408
						c0-1.33,1.078-2.408,2.408-2.408C87.769,190.838,88.847,191.916,88.847,193.246z"/>
					<circle style="fill:#FFFFFF;" cx="165.587" cy="189.882" r="2.408"/>
					<path style="fill:#FFFFFF;" d="M175.118,170.08c1.152,0.665,1.546,2.137,0.881,3.289c-0.665,1.152-2.137,1.546-3.289,0.881
						s-1.546-2.137-0.881-3.289C172.494,169.81,173.967,169.415,175.118,170.08z"/>
					<path style="fill:#FFFFFF;" d="M161.053,162.47c1.152,0.665,1.546,2.137,0.881,3.289c-0.665,1.152-2.137,1.546-3.289,0.881
						c-1.152-0.665-1.546-2.137-0.881-3.289C158.428,162.199,159.901,161.805,161.053,162.47z"/>
					<path style="fill:#FFFFFF;" d="M115.788,197.182c0,1.33-1.078,2.408-2.408,2.408c-1.33,0-2.408-1.078-2.408-2.408
						c0-1.33,1.078-2.408,2.408-2.408C114.71,194.774,115.788,195.852,115.788,197.182z"/>
					<circle style="fill:#FFFFFF;" cx="109.732" cy="168.14" r="2.408"/>
					<path style="fill:#FFFFFF;" d="M123.979,180.969c0,1.33-1.078,2.408-2.408,2.408c-1.33,0-2.408-1.078-2.408-2.408
						c0-1.33,1.078-2.408,2.408-2.408C122.901,178.561,123.979,179.639,123.979,180.969z"/>
					<path style="fill:#FFFFFF;" d="M101.212,180.126c0,1.33-1.078,2.408-2.408,2.408c-1.33,0-2.408-1.078-2.408-2.408
						c0-1.33,1.078-2.408,2.408-2.408C100.134,177.718,101.212,178.796,101.212,180.126z"/>
				</g>
				<path style="fill:#FFFFFF;" d="M132.457,165.723c0.425-0.737,1.367-0.989,2.104-0.564c0.737,0.425,0.989,1.367,0.564,2.104
					c-0.425,0.737-1.367,0.989-2.104,0.564C132.284,167.402,132.032,166.46,132.457,165.723z"/>
				<path style="fill:#FFFFFF;" d="M147.594,163.844c0.425-0.737,1.367-0.989,2.104-0.564c0.737,0.425,0.989,1.367,0.564,2.104
					c-0.425,0.737-1.367,0.989-2.104,0.564C147.421,165.522,147.169,164.58,147.594,163.844z"/>
				<path style="fill:#FFFFFF;" d="M141.993,176.844c0.425-0.737,1.367-0.989,2.104-0.564c0.737,0.425,0.989,1.367,0.564,2.104
					c-0.425,0.737-1.367,0.989-2.104,0.564C141.82,178.523,141.568,177.581,141.993,176.844z"/>
				<path style="fill:#FFFFFF;" d="M151.499,190.041c-0.601-0.602-0.601-1.577,0-2.178c0.602-0.602,1.577-0.602,2.178,0
					s0.602,1.577,0,2.178C153.076,190.642,152.101,190.642,151.499,190.041z"/>
				<path style="fill:#FFFFFF;" d="M133.493,191.327c-0.601-0.602-0.601-1.577,0-2.178c0.602-0.601,1.577-0.601,2.178,0
					c0.601,0.602,0.601,1.577,0,2.178C135.07,191.928,134.095,191.928,133.493,191.327z"/>
				<path style="fill:#FFFFFF;" d="M142.397,203.76c-0.601-0.602-0.601-1.577,0-2.178c0.602-0.602,1.577-0.602,2.178,0
					c0.601,0.602,0.601,1.577,0,2.178C143.974,204.361,142.999,204.361,142.397,203.76z"/>
				<path style="fill:#FFFFFF;" d="M154.665,214.708c-0.602-0.602-0.602-1.577,0-2.178c0.602-0.602,1.577-0.602,2.178,0
					c0.602,0.601,0.602,1.577,0,2.178S155.267,215.31,154.665,214.708z"/>
				<path style="fill:#FFFFFF;" d="M134.092,220.652c-0.601-0.602-0.601-1.577,0-2.178c0.602-0.602,1.577-0.602,2.178,0
					s0.602,1.577,0,2.178C135.669,221.253,134.693,221.253,134.092,220.652z"/>
				<circle style="fill:#FFFFFF;" cx="144.547" cy="227.873" r="1.54"/>
				<path style="fill:#FFFFFF;" d="M157.663,239.811c-0.601-0.601-0.601-1.577,0-2.178c0.602-0.602,1.577-0.602,2.178,0
					c0.602,0.601,0.602,1.577,0,2.178C159.24,240.413,158.265,240.413,157.663,239.811z"/>
				<path style="fill:#FFFFFF;" d="M145.988,248.667c-0.602-0.602-0.602-1.577,0-2.178c0.602-0.601,1.577-0.601,2.178,0
					c0.602,0.602,0.602,1.577,0,2.178S146.59,249.269,145.988,248.667z"/>
				<path style="fill:#FFFFFF;" d="M134.329,240.275c-0.601-0.601-0.601-1.577,0-2.178c0.601-0.601,1.577-0.601,2.178,0
					c0.601,0.602,0.601,1.577,0,2.178C135.905,240.876,134.93,240.876,134.329,240.275z"/>
				<circle style="fill:#FFFFFF;" cx="136.869" cy="259.105" r="1.54"/>
				<path style="fill:#FFFFFF;" d="M155.948,259.011c-0.602-0.602-0.602-1.577,0-2.178c0.602-0.601,1.577-0.601,2.178,0
					c0.602,0.602,0.602,1.577,0,2.178C157.525,259.612,156.55,259.612,155.948,259.011z"/>
				<path style="fill:#FFFFFF;" d="M146.412,265.348c-0.601-0.602-0.601-1.577,0-2.178c0.602-0.602,1.577-0.602,2.178,0
					s0.602,1.577,0,2.178S147.013,265.949,146.412,265.348z"/>
			</g>
			<g>
				<g>
					<g>
						<path style="fill:#003E19;" d="M212.14,127.537c-3.702-3.206-8.714-4.215-12.544-7.209c-3.67-2.869-4.977-7.411-5.161-11.896
							c-0.1-2.435,0.121-4.853,0.555-7.238c0.323-2.174,0.923-4.314,1.702-6.368c0.307-1.047,0.65-2.084,1.011-3.115
							c0.018-0.049,0.038-0.098,0.056-0.147c0.569-2.069,1.272-4.093,1.979-6.122c0.209-0.6,0.441-1.194,0.606-1.807
							c0.153-0.567,0.321-1.125,0.503-1.683c0.054-0.165,0.11-0.329,0.166-0.493c0.017-0.061,0.034-0.122,0.052-0.183
							c0.06-0.209,0.13-0.413,0.192-0.621c0.001-0.035,0.007-0.07,0.026-0.107c0.004-0.009,0.01-0.015,0.014-0.024
							c0.507-1.694,1.061-3.37,1.666-5.032c1.35-3.71,2.809-7.412,3.488-11.319c0.28-1.614,0.309-3.123-0.128-4.714
							c-0.437-1.591-1.173-3.094-1.976-4.529c-0.821-1.467-1.739-2.876-2.625-4.304c-0.9-1.45-1.698-2.959-2.579-4.42
							c-2.009-3.333-4.262-6.516-6.649-9.587c-4.772-6.139-10.089-11.829-15.44-17.461c-2.692-2.834-5.578-5.404-8.724-7.727
							c-1.586-1.171-3.2-2.31-4.843-3.4c-1.507-1-3.027-1.906-4.762-2.452c-0.016-0.005-0.033-0.008-0.049-0.013
							c0.112-0.003,0.223-0.003,0.335-0.006c-0.191-0.075-0.381-0.151-0.573-0.221c-0.319-0.117-0.641-0.229-0.967-0.33
							c-0.361,0.018-0.722,0.032-1.082,0.055c-0.039-0.005-0.077-0.015-0.117-0.02c-0.024-0.003-0.049,0.013-0.07,0.034
							c-4.077,0.269-8.137,0.849-12.129,1.69c-9.287,1.956-18.27,5.304-26.654,9.739c-6.857,3.628-13.501,7.735-19.547,12.604
							c-1.685,1.153-3.312,2.394-4.878,3.696c-2.458,2.043-4.802,4.222-6.985,6.558c-2.188,2.342-4.23,4.824-6.095,7.431
							c-1.953,2.731-3.711,5.648-4.819,8.832c-0.442,1.271-0.892,2.582-1.185,3.896c-0.248,1.112-0.493,2.592,0.353,3.521
							c0.125,0.137,0.294,0.089,0.437,0.008c1.871-1.061,3.618-2.325,5.503-3.359c1.838-1.008,3.756-1.868,5.707-2.632
							c4.021-1.575,8.199-2.798,12.4-3.788c8.455-1.992,17.209-2.816,25.869-1.949c7.469,0.748,14.747,2.722,21.342,6.351
							c5.971,3.286,11.391,7.781,15.262,13.427c0.942,1.374,1.787,2.814,2.517,4.312c0.659,1.354,1.163,2.746,1.654,4.165
							c0.349,1.008,0.914,2.621,2.168,2.763c1.22,0.138,2.183-1.232,2.736-2.128c0.029-0.048,0.054-0.098,0.082-0.146
							c0.263-0.301,0.456-0.687,0.63-1.032c0.23-0.458,0.43-0.928,0.612-1.407c0.379-0.998,0.69-2.019,1.071-3.016
							c0.436-1.144,0.955-2.254,1.454-3.371c0.448-1.004,0.854-2.023,1.245-3.05c0.191-0.502,0.375-1.015,0.499-1.538
							c0.037-0.155,0.072-0.317,0.102-0.48c0.904,2.496,1.623,5.054,2.085,7.698c0.827,4.728,0.939,9.551,0.668,14.335
							c-0.459,8.101-2.572,16.356-0.662,24.423c0.866,3.659,2.639,7.039,5.397,9.624c2.883,2.703,6.598,3.778,10.429,4.305
							c3.865,0.532,7.85,0.605,11.568,1.905c3.373,1.179,7.574,3.862,7.427,7.905c-0.011,0.311-0.038,0.645-0.103,0.971
							c-0.011,0.026-0.02,0.053-0.032,0.079c0.013,0.001,0.026,0.002,0.039,0.002c0.045,0.002,0.089,0.001,0.134-0.001
							c0.024-0.001,0.049-0.004,0.073-0.006c0.005-0.001,0.01-0.001,0.015-0.002c0.095-0.017,0.187-0.037,0.279-0.067
							c0.024-0.008,0.048-0.017,0.071-0.025c0.008-0.003,0.01-0.003,0.013-0.004c0.685-1.593,1.498-3.152,1.582-4.905
							C214.63,130.43,213.59,128.793,212.14,127.537z"/>
						<path style="fill:#009C58;" d="M212.791,134.215c-0.604-1.906-2.165-3.415-3.785-4.504c-3.355-2.252-7.396-2.838-11.326-3.262
							c-3.962-0.427-8.134-0.731-11.651-2.792c-3.513-2.058-5.986-5.632-7.237-9.453c-2.671-8.154-0.472-16.772,0.097-25.06
							c0.337-4.913,0.296-9.872-0.476-14.745c-0.765-4.832-2.348-9.386-4.443-13.794c-1.958-4.121-4.304-8.255-7.538-11.519
							c-0.946-0.955-2.7-2.406-4.031-1.274c-1.346,1.144-0.747,3.161-0.062,4.487c0.35,0.678,0.79,1.315,1.339,1.846
							c0.126,0.122,0.446-0.143,0.316-0.271c-1.122-1.11-2.111-2.959-1.876-4.579c0.132-0.91,0.763-1.588,1.712-1.278
							c0.776,0.254,1.458,0.847,2.023,1.419c3.089,3.128,5.372,7.089,7.278,11.017c0.786,1.619,1.504,3.261,2.139,4.931
							c0,0.001-0.001,0.003-0.002,0.004c-0.164,0.904-0.451,1.752-0.788,2.605c-0.383,0.969-0.773,1.935-1.194,2.888
							c-0.479,1.084-0.984,2.157-1.427,3.257c-0.392,0.974-0.707,1.974-1.062,2.961c-0.175,0.486-0.363,0.968-0.57,1.442
							c-0.085,0.043-0.159,0.104-0.195,0.182c-0.246,0.548-0.555,1.074-0.888,1.574c-0.337,0.507-0.773,1.139-1.356,1.384
							c-1.255,0.529-1.988-1.788-2.258-2.596c-0.992-2.964-2.356-5.753-4.12-8.338c-3.802-5.569-9.112-10.044-14.963-13.338
							c-6.318-3.557-13.247-5.598-20.425-6.492c-8.504-1.059-17.15-0.464-25.519,1.302c-4.166,0.879-8.288,2.029-12.308,3.432
							c-1.955,0.683-3.885,1.444-5.758,2.327c-1.885,0.888-3.665,1.93-5.421,3.05c-0.762,0.486-1.528,0.967-2.31,1.422
							c-0.581-0.836-0.376-2.051-0.164-2.979c0.246-1.081,0.623-2.13,0.956-3.187c1-3.174,2.685-6.085,4.586-8.799
							c2.62-3.741,5.592-7.233,8.846-10.438c0.018-0.033,0.044-0.063,0.078-0.09c0.018-0.014,0.035-0.029,0.053-0.042
							c1.125-1.103,2.283-2.172,3.473-3.205c0.179-0.156,0.365-0.302,0.546-0.456c1.828-1.63,14.478-10.579,19.039-13.229
							c8.208-4.77,16.86-8.691,26.024-11.229c6.381-1.767,12.969-2.905,19.591-3.197c1.182,0.38,2.307,0.897,3.387,1.548
							c1.631,0.984,3.167,2.158,4.71,3.274c3.165,2.287,6.256,4.704,9.003,7.489c2.675,2.711,5.256,5.53,7.82,8.347
							c2.617,2.875,5.178,5.803,7.618,8.83c2.402,2.981,4.692,6.056,6.773,9.271c1.027,1.586,1.996,3.207,2.911,4.859
							c0.75,1.354,1.601,2.648,2.416,3.963c1.656,2.672,3.571,5.738,3.576,8.992c0.003,1.892-0.547,3.85-1.063,5.655
							c-0.537,1.878-1.196,3.718-1.868,5.551c-0.678,1.848-1.373,3.69-1.972,5.565c-0.631,1.973-1.144,3.98-1.727,5.968
							c-0.773,2.637-4.483,13.465-5.014,16.395c-0.825,4.556-0.999,9.637,0.719,14.023c0.734,1.874,1.853,3.56,3.346,4.915
							c1.795,1.629,4.014,2.693,6.192,3.707c2.132,0.993,4.247,2.001,6.162,3.382c1.703,1.229,3.221,2.875,3.169,5.107
							c-0.028,1.169-0.404,2.262-0.854,3.338C213.021,135.219,212.936,134.674,212.791,134.215z"/>
						<path style="fill:#009C58;" d="M142.649,9.717c-2.203,0.423-4.365,1.043-6.489,1.762c-2.351,0.795-4.69,1.633-7.001,2.538
							c-5.136,2.012-10.149,4.349-14.97,7.029c-4.89,2.719-9.595,5.795-13.95,9.313c-1.238,1-2.445,2.041-3.622,3.116
							c1.276-0.821,2.57-1.615,3.879-2.381c4.482-2.62,9.132-4.944,13.84-7.127c4.489-2.081,9.03-4.058,13.571-6.025
							c4.748-2.057,9.581-4.001,14.622-5.22c4.544-1.099,9.312-1.596,13.93-0.719c-0.193-0.172-0.39-0.339-0.597-0.494
							C152.124,8.695,147.016,8.878,142.649,9.717z"/>
						<path style="opacity:0.58;fill:#009C58;" d="M210.723,127.334c-1.915-1.382-4.029-2.389-6.162-3.382
							c-2.178-1.014-4.397-2.078-6.192-3.707c-1.493-1.355-2.612-3.04-3.346-4.915c-1.718-4.386-1.545-9.466-0.719-14.023
							c0.531-2.929,4.241-13.758,5.014-16.395c0.582-1.987,1.096-3.995,1.727-5.968c0.599-1.875,1.295-3.718,1.972-5.565
							c0.672-1.833,1.331-3.673,1.868-5.551c0.516-1.806,1.066-3.764,1.063-5.655c-0.005-3.254-1.921-6.319-3.576-8.992
							c-0.815-1.315-1.666-2.609-2.416-3.963c-0.915-1.653-1.884-3.274-2.911-4.859c-2.081-3.214-4.371-6.29-6.773-9.271
							c-2.44-3.027-5-5.955-7.618-8.83c-2.564-2.816-5.145-5.635-7.82-8.347c-2.747-2.784-5.838-5.201-9.003-7.489
							c-1.543-1.115-3.079-2.29-4.71-3.274c-1.08-0.652-2.205-1.168-3.387-1.548c-1.688,0.075-3.373,0.205-5.054,0.386
							c1.088,0.334,2.16,0.723,3.208,1.168c3.26,1.384,6.302,3.25,9.126,5.38c2.94,2.217,5.659,4.719,8.184,7.397
							c2.498,2.649,4.81,5.473,6.949,8.42c1.997,2.751,3.845,5.613,5.509,8.578c2.061,3.672,3.797,7.553,5.052,11.575
							c1.357,4.349,2.098,8.893,2.025,13.454c-0.059,3.64-0.655,7.329-1.728,10.806c-1.05,3.4-2.638,6.828-5.277,9.291
							c-0.113,0.105-0.348,0.111-0.42-0.054c-0.22-0.506-0.415-1.021-0.583-1.546c-1.527-4.786-1.278-9.926-2.394-14.798
							c-1.122-4.899-2.57-9.848-5.891-13.748c-1.73-2.031-3.872-3.789-5.999-5.386c-2.13-1.6-4.379-3.04-6.702-4.343
							c-2.316-1.3-4.707-2.466-7.144-3.522c-2.527-1.096-5.091-2.121-7.731-2.911c-2.493-0.745-5.033-1.335-7.562-1.962
							c3.929,2.605,7.476,5.759,10.395,9.481c0.892,1.138,1.724,2.324,2.553,3.508c0.866,1.237,1.704,2.496,2.452,3.808
							c1.442,2.529,2.676,5.411,2.476,8.383c-0.018,0.267-0.349,0.361-0.499,0.135c-0.486-0.737-1.014-1.444-1.581-2.12
							c-2.332-2.78-5.209-5.066-8.216-7.073c-3.003-2.005-6.173-3.841-9.443-5.372c-7.017-3.286-14.736-5.051-22.471-5.319
							c-3.867-0.134-7.798,0.063-11.61,0.752c-4.172,0.755-8.184,2.165-12.141,3.653c-0.953,0.358-1.965,0.662-2.879,1.111
							c-0.604,0.297-1.208,0.598-1.852,0.8c-0.594,0.187-1.291,0.322-1.892,0.091c-0.442-0.17-0.767-0.555-0.976-0.971
							c-0.746-1.482-0.069-3.345,0.613-4.8c-2.21,2.409-4.269,4.956-6.145,7.634c-1.901,2.714-3.585,5.625-4.586,8.799
							c-0.333,1.056-0.71,2.106-0.956,3.187c-0.212,0.929-0.417,2.143,0.164,2.979c0.782-0.455,1.547-0.936,2.31-1.422
							c1.756-1.119,3.536-2.161,5.421-3.05c1.874-0.883,3.803-1.644,5.758-2.327c4.02-1.403,8.142-2.553,12.308-3.432
							c8.369-1.766,17.015-2.361,25.519-1.302c7.178,0.894,14.106,2.935,20.425,6.492c5.851,3.294,11.161,7.769,14.963,13.338
							c1.764,2.585,3.128,5.374,4.12,8.338c0.27,0.808,1.003,3.125,2.258,2.596c0.583-0.245,1.019-0.878,1.356-1.384
							c0.333-0.5,0.642-1.026,0.888-1.574c0.035-0.078,0.11-0.139,0.195-0.182c0.207-0.474,0.395-0.955,0.57-1.442
							c0.355-0.987,0.67-1.988,1.062-2.961c0.443-1.1,0.949-2.173,1.427-3.257c0.421-0.953,0.811-1.919,1.194-2.888
							c0.337-0.853,0.624-1.701,0.788-2.605c0-0.001,0.001-0.003,0.002-0.004c-0.635-1.669-1.353-3.311-2.139-4.931
							c-1.906-3.928-4.189-7.889-7.278-11.017c-0.565-0.572-1.247-1.165-2.023-1.419c-0.949-0.31-1.58,0.368-1.712,1.278
							c-0.235,1.62,0.754,3.469,1.876,4.579c0.13,0.128-0.19,0.393-0.316,0.271c-0.549-0.531-0.989-1.168-1.339-1.846
							c-0.685-1.327-1.284-3.343,0.062-4.487c1.331-1.132,3.085,0.32,4.031,1.274c3.234,3.264,5.58,7.398,7.538,11.519
							c2.095,4.408,3.678,8.962,4.443,13.794c0.772,4.873,0.813,9.832,0.476,14.745c-0.568,8.288-2.768,16.907-0.097,25.06
							c1.251,3.821,3.724,7.395,7.237,9.453c3.517,2.061,7.69,2.365,11.651,2.792c3.931,0.424,7.971,1.009,11.326,3.262
							c1.621,1.088,3.182,2.598,3.785,4.504c0.145,0.459,0.23,1.004,0.247,1.563c0.45-1.076,0.827-2.169,0.854-3.338
							C213.944,130.208,212.426,128.562,210.723,127.334z"/>
						<path style="opacity:0.58;fill:#009C58;" d="M179.618,75.383c-0.09-7.386-1.985-14.979-6.436-20.983
							c-1.917-2.586-4.399-4.836-7.398-6.08c-0.119-0.049-0.267-0.109-0.428-0.172c0.411,0.3,0.782,0.643,1.075,0.938
							c3.234,3.264,5.58,7.398,7.538,11.519c2.095,4.408,3.678,8.962,4.443,13.794c0.417,2.632,0.615,5.289,0.661,7.95
							c0.046-0.263,0.096-0.525,0.136-0.788C179.527,79.513,179.643,77.454,179.618,75.383z"/>
						<path style="opacity:0.58;fill:#009C58;" d="M175.268,65.385c-0.635-1.669-1.353-3.311-2.139-4.931
							c-1.906-3.928-4.189-7.889-7.278-11.017c-0.565-0.572-1.247-1.165-2.023-1.419c-0.949-0.31-1.58,0.368-1.712,1.278
							c-0.235,1.62,0.754,3.469,1.876,4.579c0.13,0.128-0.19,0.393-0.316,0.271c-0.549-0.531-0.989-1.168-1.339-1.846
							c-0.127-0.245-0.25-0.515-0.36-0.798c0.313,0.872,0.686,1.722,1.073,2.563c0.4,0.868,0.821,1.726,1.209,2.599
							c0.596,1.339,0.982,2.752,1.251,4.192c0.375,2.008,0.52,4.053,0.568,6.092c0.04,1.718-0.022,3.434,0.009,5.152
							c0.031,1.717,0.079,3.437-0.026,5.152c-0.051,0.831-0.136,1.671-0.303,2.491c0.368,0.988,1.033,2.358,2.029,1.939
							c0.583-0.245,1.019-0.878,1.356-1.384c0.333-0.5,0.642-1.026,0.888-1.574c0.035-0.078,0.11-0.139,0.195-0.182
							c0.207-0.474,0.395-0.955,0.57-1.442c0.355-0.987,0.67-1.988,1.062-2.961c0.443-1.1,0.949-2.173,1.427-3.257
							c0.421-0.953,0.811-1.919,1.194-2.888c0.337-0.853,0.624-1.701,0.788-2.605C175.267,65.388,175.268,65.386,175.268,65.385z"/>
						<path style="opacity:0.58;fill:#009C58;" d="M162.4,47.813c0.126-0.107,0.256-0.184,0.389-0.248
							c-0.726,0.022-1.303,0.316-1.377,1.181c-0.07,0.821,0.192,1.667,0.451,2.434c0.002,0.006,0.005,0.013,0.007,0.019
							C161.475,50.019,161.391,48.67,162.4,47.813z"/>
						<path style="opacity:0.58;fill:#009C58;" d="M210.723,127.334c-1.915-1.382-4.029-2.389-6.162-3.382
							c-2.178-1.014-4.397-2.078-6.192-3.707c-1.493-1.355-2.612-3.04-3.346-4.915c-1.718-4.386-1.545-9.466-0.719-14.023
							c0.531-2.929,4.241-13.758,5.014-16.395c0.582-1.987,1.096-3.995,1.727-5.968c0.599-1.875,1.295-3.718,1.972-5.565
							c0.672-1.833,1.331-3.673,1.868-5.551c0.516-1.806,1.066-3.764,1.063-5.655c-0.005-3.254-1.921-6.319-3.576-8.992
							c-0.815-1.315-1.666-2.609-2.416-3.963c-0.134-0.242-0.278-0.479-0.415-0.72c0.665,1.916,1.234,3.862,1.67,5.84
							c1.233,5.594,1.174,11.283-0.315,16.822c-0.827,3.078-2.062,6.007-3.303,8.936c-1.334,3.145-2.708,6.272-4.029,9.423
							c-1.295,3.088-2.541,6.199-3.647,9.361c-0.529,1.51-1.019,3.033-1.553,4.542c-0.559,1.581-1.064,3.198-0.96,4.896
							c0.018,0.302-0.463,0.363-0.525,0.071c-1.322-6.186-1.402-12.555-0.579-18.81c-1.557,3.089-2.8,6.335-3.664,9.686
							c-1.683,6.533-1.95,13.597,0.227,20.05c0.347,1.027,0.762,2.015,1.228,2.971c0.606,0.509,1.251,0.971,1.938,1.373
							c3.517,2.061,7.69,2.365,11.651,2.792c3.931,0.424,7.971,1.009,11.326,3.262c1.621,1.088,3.182,2.598,3.785,4.504
							c0.145,0.459,0.23,1.004,0.247,1.563c0.45-1.076,0.827-2.169,0.854-3.338C213.944,130.208,212.426,128.562,210.723,127.334z"
							/>
					</g>
					<g>
						<g>
							<path style="fill:#FE0000;" d="M217.254,136.61c0,2.553-2.07,4.623-4.623,4.623c-2.553,0-4.623-2.07-4.623-4.623
								c0-2.553,2.07-4.623,4.623-4.623C215.184,131.987,217.254,134.056,217.254,136.61z"/>
							<path style="fill:#B40000;" d="M212.631,141.591c-2.747,0-4.982-2.235-4.982-4.982c0-2.747,2.235-4.982,4.982-4.982
								c2.747,0,4.982,2.235,4.982,4.982C217.613,139.357,215.378,141.591,212.631,141.591z M212.631,132.346
								c-2.351,0-4.264,1.912-4.264,4.264c0,2.351,1.913,4.264,4.264,4.264c2.351,0,4.264-1.913,4.264-4.264
								C216.895,134.258,214.983,132.346,212.631,132.346z"/>
						</g>
						<path style="opacity:0.61;fill:#9C0C0E;" d="M212.631,131.987c-2.553,0-4.623,2.07-4.623,4.623
							c0,2.553,2.07,4.623,4.623,4.623c2.553,0,4.623-2.07,4.623-4.623C217.254,134.056,215.184,131.987,212.631,131.987z
							 M211.974,139.227c-1.672,0-3.028-1.355-3.028-3.028c0-1.672,1.355-3.027,3.028-3.027s3.027,1.355,3.027,3.027
							C215.002,137.872,213.646,139.227,211.974,139.227z"/>
						<path style="opacity:0.61;fill:#FFFFFF;" d="M212.466,135.223c0,0.825-0.668,1.493-1.493,1.493
							c-0.825,0-1.493-0.668-1.493-1.493c0-0.824,0.668-1.493,1.493-1.493C211.798,133.731,212.466,134.399,212.466,135.223z"/>
					</g>
				</g>
				<g>
					<path style="fill:#FE0000;" d="M167.39,69.754c-0.147-0.71-0.263-1.428-0.343-2.155c-0.32-2.915-0.198-5.989,0.771-8.798
						c0.412-1.194,1.956-3.497,2.098-3.991c-2.07,0.46-4.092,1.142-5.99,2.084c-2.805,1.392-5.292,3.338-7.303,5.739
						c-0.164,0.195-0.437,0.016-0.457-0.189c-0.174-1.796-0.365-3.59-0.499-5.389c-0.261-3.511-0.345-7.086,0.283-10.564
						c0.394-2.182,1.127-4.335,2.335-6.181c-3.433,0.45-6.811,1.5-9.908,3.027c-3.575,1.763-6.656,4.528-8.637,8
						c-0.138,0.242-0.483,0.12-0.498-0.135c-0.113-1.834-0.146-3.672-0.255-5.507c-0.1-1.7-0.27-3.397-0.614-5.067
						c-0.334-1.618-0.861-3.2-1.407-4.758c-0.033-0.094-0.07-0.188-0.103-0.282c-0.187-0.394-0.377-0.787-0.568-1.179
						c-0.527-1.085-1.107-2.956-1.543-4.395c-0.238-0.616-0.471-1.233-0.702-1.852c-1.376,0.554-2.728,1.169-4.058,1.82
						c-2.761,1.352-5.448,2.808-7.885,4.698c-1.256,0.974-2.444,2.04-3.525,3.206c-1.048,1.131-2.013,2.333-2.703,3.719
						c-1.35,2.712-1.733,5.774-2.267,8.72c-0.046,0.253-0.474,0.258-0.516,0c-0.365-2.239-0.924-4.481-1.969-6.508
						c-0.889-1.724-2.148-3.237-3.708-4.395c-1.442-1.071-3.093-1.839-4.8-2.384c-2.407-0.768-4.994-1.143-7.55-1.073
						c-0.006,0.013-0.012,0.026-0.018,0.039c-1.173,2.631-2.034,5.478-2.083,8.377c-0.025,1.481,0.174,2.934,0.532,4.37
						c0.359,1.44,0.793,2.862,0.95,4.344c0.028,0.262-0.387,0.368-0.499,0.135c-0.97-2.026-2.625-3.539-4.645-4.491
						c-1.766-0.832-3.726-1.236-5.664-1.383c-1.998-0.151-4.029-0.111-6.027,0.009c-0.952,0.057-1.918,0.139-2.886,0.255
						c-2.328,0.461-5.351,1.026-5.255,1.211c1.056,2.034,1.42,4.29,1.826,6.49c0.336,1.822,0.749,3.624,1.352,5.39
						c0.176,0.514,0.371,1.027,0.576,1.538c-2.226-0.76-4.702-0.819-7.133-0.719c0.425,0.386,0.769,0.88,1.005,1.463
						c0.919,2.267-0.004,4.622-0.343,6.907c-0.837,5.632,4.06,6.374,8.465,5.293c6.291-1.544,11.989-4.367,18.439-5.355
						c6.627-1.016,13.365-1.216,20.05-0.766c13.514,0.91,26.771,4.42,39.367,9.302c4.699,1.821,9.365,3.841,14.314,4.792
						c1.063,0.204,2.174,0.356,3.215,0.057c2.556-0.737,2.981-4.225,3.235-6.428c0.159-1.386,0.24-2.567,0.8-3.877
						c0.353-0.825,2.07-4.381,3.155-4.362C175.378,68.513,168.224,68.838,167.39,69.754z"/>
					<path style="fill:#B40000;" d="M169.314,83.75c-0.693,0-1.371-0.114-1.99-0.233c-4.228-0.813-8.297-2.417-12.232-3.969
						c-0.715-0.282-1.429-0.564-2.145-0.841c-13.745-5.328-26.955-8.45-39.261-9.278c-6.913-0.466-13.632-0.21-19.971,0.762
						c-3.743,0.574-7.311,1.798-10.76,2.982c-2.47,0.848-5.024,1.724-7.648,2.367c-3.31,0.814-6.087,0.476-7.621-0.921
						c-1.165-1.061-1.598-2.667-1.284-4.773c0.082-0.553,0.198-1.115,0.312-1.658c0.367-1.766,0.714-3.434,0.054-5.062
						c-0.214-0.527-0.522-0.974-0.914-1.331c-0.108-0.098-0.146-0.251-0.096-0.388c0.049-0.137,0.177-0.23,0.322-0.236
						c2.024-0.083,4.355-0.081,6.544,0.517c-0.109-0.287-0.213-0.574-0.311-0.862c-0.537-1.572-0.971-3.3-1.366-5.441l-0.079-0.435
						c-0.369-2.017-0.749-4.102-1.711-5.954c-0.053-0.1-0.054-0.238-0.005-0.34c0.132-0.273,0.326-0.37,4.621-1.214l0.887-0.174
						c0.944-0.115,1.922-0.201,2.935-0.261c2.353-0.142,4.283-0.144,6.076-0.009c2.201,0.167,4.149,0.643,5.789,1.416
						c2.004,0.944,3.57,2.379,4.562,4.169c-0.144-0.953-0.392-1.9-0.632-2.82c-0.081-0.308-0.161-0.616-0.238-0.925
						c-0.389-1.558-0.566-3.019-0.543-4.462c0.045-2.641,0.736-5.427,2.114-8.517c0.057-0.126,0.199-0.248,0.337-0.252
						c2.568-0.076,5.216,0.308,7.669,1.091c1.886,0.601,3.537,1.422,4.905,2.438c1.571,1.166,2.889,2.728,3.813,4.518
						c0.861,1.67,1.473,3.607,1.91,6.062c0.041-0.237,0.083-0.475,0.124-0.713c0.44-2.548,0.896-5.183,2.078-7.556
						c0.614-1.233,1.465-2.406,2.761-3.802c1.044-1.127,2.245-2.219,3.568-3.246c2.6-2.016,5.476-3.526,7.948-4.738
						c1.443-0.707,2.779-1.306,4.081-1.831c0.09-0.036,0.191-0.034,0.279,0.005c0.088,0.039,0.158,0.112,0.191,0.203
						c0.23,0.618,0.462,1.234,0.7,1.848c0.514,1.692,1.048,3.372,1.532,4.367l0.034,0.068c0.18,0.371,0.36,0.742,0.536,1.115
						l0.118,0.318c0.503,1.431,1.068,3.102,1.419,4.803c0.304,1.473,0.501,3.099,0.621,5.118c0.053,0.89,0.088,1.781,0.123,2.672
						c0.033,0.849,0.067,1.699,0.115,2.547c1.959-3.302,5.014-6.093,8.635-7.878c3.157-1.556,6.622-2.615,10.02-3.061
						c0.148-0.016,0.277,0.046,0.351,0.165c0.074,0.118,0.073,0.27-0.004,0.387c-1.092,1.669-1.859,3.704-2.282,6.049
						c-0.66,3.653-0.511,7.345-0.278,10.474c0.103,1.385,0.242,2.792,0.376,4.152l0.102,1.037c2.013-2.353,4.455-4.252,7.261-5.645
						c1.847-0.916,3.89-1.627,6.072-2.113c0.124-0.028,0.252,0.012,0.339,0.104c0.086,0.092,0.118,0.223,0.083,0.345
						c-0.068,0.238-0.321,0.679-0.763,1.438c-0.496,0.851-1.113,1.911-1.34,2.572c-0.857,2.484-1.111,5.392-0.754,8.642
						c0.058,0.532,0.139,1.079,0.241,1.631c2.152-0.891,9.099-1.006,10.155-0.993c0.001,0,0.001,0,0.002,0
						c0.198,0.004,0.356,0.167,0.353,0.365c-0.004,0.196-0.163,0.353-0.359,0.353c-0.002,0-0.004,0-0.006,0l0,0
						c-0.001,0-0.003,0-0.005,0c-0.636,0-2.089,2.45-2.813,4.143c-0.479,1.119-0.592,2.143-0.724,3.329l-0.05,0.449
						c-0.255,2.215-0.681,5.922-3.491,6.731C170.245,83.699,169.776,83.75,169.314,83.75z M107.058,68.486
						c2.202,0,4.429,0.075,6.677,0.227c12.38,0.834,25.66,3.971,39.473,9.326c0.717,0.278,1.432,0.559,2.149,0.842
						c3.904,1.539,7.941,3.131,12.104,3.931c0.949,0.183,2.045,0.355,3.048,0.065c2.351-0.677,2.743-4.086,2.977-6.124l0.051-0.446
						c0.132-1.19,0.257-2.315,0.777-3.531c0.06-0.14,1.125-2.606,2.284-3.861c-3.26,0.051-8.374,0.459-8.94,1.08
						c-0.09,0.1-0.231,0.139-0.36,0.104c-0.13-0.036-0.23-0.142-0.257-0.274c-0.153-0.74-0.27-1.476-0.348-2.188
						c-0.368-3.357-0.102-6.37,0.789-8.955c0.251-0.728,0.887-1.821,1.398-2.699c0.126-0.217,0.259-0.445,0.375-0.65
						c-1.848,0.462-3.583,1.094-5.167,1.88c-2.791,1.384-5.209,3.285-7.187,5.648c-0.156,0.184-0.395,0.253-0.62,0.186
						c-0.251-0.078-0.444-0.312-0.47-0.571l-0.121-1.227c-0.135-1.365-0.275-2.777-0.378-4.17
						c-0.236-3.175-0.386-6.923,0.288-10.655c0.386-2.14,1.052-4.038,1.982-5.653c-3.077,0.486-6.189,1.477-9.043,2.884
						c-3.591,1.771-6.604,4.562-8.483,7.856c-0.137,0.241-0.397,0.357-0.669,0.295c-0.277-0.064-0.482-0.306-0.499-0.587
						c-0.058-0.948-0.096-1.899-0.133-2.849c-0.034-0.886-0.069-1.773-0.121-2.658c-0.118-1.983-0.311-3.577-0.607-5.015
						c-0.342-1.657-0.899-3.301-1.394-4.711l-0.102-0.28c-0.162-0.339-0.341-0.707-0.52-1.075l-0.033-0.068
						c-0.505-1.041-1.051-2.753-1.564-4.448c-0.187-0.481-0.376-0.98-0.565-1.484c-1.179,0.485-2.391,1.033-3.693,1.671
						c-2.438,1.195-5.275,2.684-7.823,4.66c-1.292,1.002-2.464,2.068-3.481,3.167c-1.247,1.344-2.062,2.465-2.645,3.634
						c-1.134,2.279-1.581,4.861-2.013,7.358c-0.074,0.423-0.146,0.845-0.222,1.265c-0.053,0.288-0.305,0.487-0.614,0.487
						c-0.002,0-0.005,0-0.007,0c-0.308-0.003-0.556-0.205-0.602-0.493c-0.431-2.643-1.045-4.676-1.934-6.4
						c-0.873-1.693-2.119-3.17-3.603-4.271c-1.305-0.969-2.885-1.752-4.695-2.329c-2.306-0.736-4.804-1.109-7.205-1.062
						c-1.296,2.958-1.936,5.586-1.978,8.068c-0.023,1.38,0.148,2.779,0.522,4.276c0.076,0.306,0.156,0.612,0.235,0.917
						c0.294,1.123,0.597,2.284,0.723,3.476c0.03,0.29-0.155,0.551-0.451,0.634c-0.301,0.085-0.6-0.041-0.728-0.307
						c-0.895-1.869-2.442-3.364-4.474-4.321c-1.561-0.735-3.424-1.19-5.538-1.349c-1.758-0.134-3.659-0.129-5.978,0.009
						c-0.998,0.059-1.962,0.145-2.865,0.253l-0.861,0.171c-1.406,0.276-3.253,0.639-3.956,0.844c0.892,1.86,1.261,3.877,1.618,5.83
						l0.08,0.434c0.388,2.104,0.813,3.801,1.338,5.339c0.174,0.508,0.367,1.015,0.569,1.521c0.053,0.13,0.024,0.278-0.073,0.381
						c-0.096,0.101-0.242,0.137-0.376,0.092c-2.017-0.688-4.241-0.778-6.234-0.726c0.222,0.299,0.407,0.632,0.555,0.995
						c0.742,1.83,0.357,3.684-0.016,5.477c-0.112,0.542-0.225,1.082-0.305,1.617c-0.275,1.855,0.081,3.246,1.059,4.137
						c1.335,1.216,3.938,1.497,6.966,0.755c2.593-0.637,5.132-1.507,7.586-2.35c3.48-1.194,7.078-2.428,10.884-3.012
						C97.935,68.819,102.439,68.486,107.058,68.486z M69.794,48.664c0,0.001,0.001,0.001,0.001,0.001S69.794,48.665,69.794,48.664z"
						/>
				</g>
				<g>
					<path style="opacity:0.4;fill:#FFFFFF;" d="M74.896,56.073c-0.728-1.651-1.934-2.999-2.966-4.46
						c0.165,0.755,0.337,1.508,0.516,2.259c0.269,1.123,0.559,2.24,0.829,3.363c0.172,0.716,0.276,1.448,0.399,2.174
						c0.228,1.338,0.453,2.963,1.353,4.054c0.522-0.604,0.693-1.443,0.74-2.227c0.053-0.89-0.034-1.787-0.185-2.664
						C75.435,57.717,75.247,56.869,74.896,56.073z"/>
					<path style="opacity:0.4;fill:#FFFFFF;" d="M95.578,42.361c-0.145-0.301-0.318-0.604-0.528-0.873
						c-0.069,0.233-0.131,0.467-0.184,0.704c-0.405,1.78-0.444,3.673-0.15,5.474c0.241,1.475,0.71,3.008,1.642,4.203
						c0.202-0.554,0.283-1.167,0.335-1.741c0.16-1.787,0.028-3.629-0.348-5.382C96.17,43.932,95.941,43.113,95.578,42.361z"/>
					<path style="opacity:0.4;fill:#FFFFFF;" d="M157.886,63.139c-0.365,0.532-0.761,1.174-0.773,1.841
						c-0.004,0.244,0.052,0.509,0.215,0.699c0.054,0.063,0.087,0.068,0.22,0.036c0.445-0.108,0.869-0.488,1.21-0.8
						c1.11-1.012,2.065-2.274,2.74-3.615c0.257-0.511,0.729-1.538,0.485-2.163c-0.806,0.596-1.574,1.247-2.295,1.943
						C159.032,61.714,158.402,62.387,157.886,63.139z"/>
					<path style="opacity:0.4;fill:#FFFFFF;" d="M143.485,48.559c-1.39,1.513-2.682,3.354-3.136,5.397
						c0.73-0.355,1.36-0.945,1.924-1.505c0.686-0.68,1.317-1.412,1.944-2.145c0.623-0.728,1.265-1.407,1.941-2.086
						c1.274-1.281,2.426-2.671,3.473-4.139c-0.056,0.024-0.112,0.046-0.167,0.07C147.192,45.16,145.16,46.735,143.485,48.559z"/>
					<path style="opacity:0.4;fill:#FFFFFF;" d="M125.546,34.043c-0.842,0.365-1.625,0.89-2.342,1.447
						c-1.994,1.549-3.751,3.517-5.004,5.712c-0.987,1.728-1.877,4.024-1.04,5.977c1.234-0.554,2.254-1.606,3.13-2.6
						c1.843-2.092,3.378-4.511,4.613-7.007c0.294-0.594,0.57-1.19,0.739-1.833c0.116-0.441,0.238-0.987,0.082-1.435
						C125.683,34.184,125.621,34.103,125.546,34.043z"/>
				</g>
				<path style="opacity:0.61;fill:#9C0C0E;" d="M167.39,69.754c-0.147-0.71-0.263-1.428-0.343-2.155
					c-0.32-2.915-0.198-5.989,0.771-8.798c0.412-1.194,1.956-3.497,2.098-3.991c-0.468,0.104-0.932,0.223-1.394,0.35
					c-2.315,1.834-4.096,4.297-5,7.155c-0.585,1.851-0.699,3.752-0.915,5.668c-0.2,1.77-0.479,3.697-1.57,5.166
					c-1.257,1.691-3.274,1.992-5.207,1.425c-1.066-0.313-2.071-0.813-3.049-1.332c-1.13-0.599-2.323-1.088-3.484-1.626
					c-2.486-1.151-4.974-2.316-7.578-3.18c-2.543-0.844-5.203-1.391-7.831-1.896c-10.709-2.059-21.734-2.399-32.587-1.503
					c-5.519,0.456-11.03,1.447-16.378,2.881c-2.146,0.575-4.231,1.224-6.269,2.105c-1.743,0.753-3.533,1.547-5.425,1.826
					c-1.454,0.215-3.078,0.049-4.111-1.117c-0.813-0.917-0.924-2.181-0.906-3.353c0.02-1.3,0.237-2.653-0.058-3.937
					c-0.201-0.875-0.686-1.493-1.327-1.935c-0.243,0.006-0.487,0.013-0.729,0.023c0.425,0.386,0.769,0.88,1.005,1.463
					c0.919,2.267-0.004,4.622-0.343,6.907c-0.837,5.632,4.06,6.374,8.465,5.293c6.291-1.544,11.989-4.367,18.439-5.355
					c6.627-1.016,13.365-1.216,20.05-0.766c13.514,0.91,26.771,4.42,39.367,9.302c4.699,1.821,9.365,3.841,14.314,4.792
					c1.062,0.204,2.174,0.356,3.215,0.057c2.556-0.737,2.981-4.225,3.235-6.428c0.159-1.386,0.24-2.567,0.8-3.877
					c0.353-0.825,2.07-4.381,3.155-4.362C175.378,68.513,168.224,68.838,167.39,69.754z"/>
				<path style="opacity:0.61;fill:#9C0C0E;" d="M155.123,43.756c-2.009,3.44-2.898,7.503-2.774,11.468
					c0.115,3.683,1.146,7.391,3.272,10.425c0.188-1.319,0.299-2.649,0.471-3.962c-0.153-1.543-0.309-3.086-0.424-4.633
					c-0.261-3.511-0.345-7.086,0.283-10.564c0.394-2.182,1.127-4.335,2.335-6.181c-0.196,0.026-0.39,0.06-0.585,0.09
					C156.701,41.397,155.837,42.533,155.123,43.756z"/>
				<path style="opacity:0.61;fill:#9C0C0E;" d="M133.649,28.333c-0.269,1.408-0.136,2.902,0.104,4.308
					c0.334,1.958,0.888,3.873,1.185,5.837c0.148,0.981,0.215,1.979,0.288,2.968c0.088,1.198,0.127,2.399,0.105,3.6
					c-0.041,2.238-0.234,4.589-0.95,6.724c-0.636,1.896-1.703,3.615-2.337,5.51c1.194-0.278,2.325-0.756,3.321-1.484
					c1.848-1.351,3.059-3.394,3.835-5.516c-0.075-1.529-0.121-3.059-0.212-4.587c-0.1-1.7-0.27-3.397-0.614-5.067
					c-0.334-1.618-0.861-3.2-1.407-4.758c-0.033-0.094-0.07-0.188-0.103-0.282c-0.187-0.394-0.377-0.787-0.568-1.179
					c-0.527-1.085-1.107-2.956-1.543-4.395c-0.238-0.616-0.471-1.233-0.702-1.852C133.916,28.216,133.784,28.277,133.649,28.333z"/>
				<path style="opacity:0.61;fill:#9C0C0E;" d="M98.529,37.987c1.665,0.92,3.407,1.717,4.983,2.791
					c0.713,0.486,1.402,1.031,1.969,1.684c0.764,0.88,1.417,1.882,1.959,2.912c2.045,3.888,2.142,8.28,1.795,12.561
					c0.893-0.742,1.664-1.622,2.26-2.621c0.904-1.516,1.414-3.196,1.625-4.932c-0.009-0.018-0.019-0.036-0.022-0.058
					c-0.365-2.239-0.924-4.481-1.969-6.508c-0.889-1.724-2.148-3.237-3.708-4.395c-1.442-1.071-3.093-1.839-4.8-2.384
					c-2.263-0.722-4.686-1.092-7.092-1.076C96.41,36.786,97.5,37.418,98.529,37.987z"/>
				<path style="opacity:0.61;fill:#9C0C0E;" d="M75.648,48.614c2.334,0.05,4.71,0.143,6.972,0.772
					c1.787,0.497,3.509,1.264,5.036,2.322c2.796,1.936,4.761,4.758,5.829,7.955c0.268-0.82,0.462-1.664,0.56-2.522
					c0.16-1.398,0.076-2.786-0.208-4.129c-0.982-1.915-2.583-3.357-4.528-4.274c-1.766-0.832-3.726-1.236-5.664-1.383
					c-1.998-0.151-4.029-0.111-6.027,0.009c-0.952,0.057-1.918,0.139-2.886,0.255c-1.373,0.272-2.983,0.579-4.057,0.824
					C72.326,48.581,73.996,48.578,75.648,48.614z"/>
			</g>
		</g>
		<path style="opacity:0.49;fill:#EF6A91;" d="M158.232,113.433c0,2.19-4.427,3.965-9.889,3.965c-5.461,0-9.889-1.775-9.889-3.965
			c0-2.189,4.427-3.964,9.889-3.964C153.805,109.469,158.232,111.244,158.232,113.433z"/>
		<path style="opacity:0.49;fill:#EF6A91;" d="M92.076,113.433c0,2.19-4.427,3.965-9.888,3.965c-5.461,0-9.889-1.775-9.889-3.965
			c0-2.189,4.427-3.964,9.889-3.964C87.649,109.469,92.076,111.244,92.076,113.433z"/>
		<g>
			<g>
				<path style="fill:#F16726;" d="M113.423,108.861c0,0-36.471,2.162-33.518,5.016c2.952,2.854,32.865,13.189,37.513,10.668
					C122.067,122.024,122.631,108.889,113.423,108.861z"/>
				<path style="fill:#943E0B;" d="M115.162,125.28c-8.727,0-33.068-8.787-35.507-11.145c-0.348-0.337-0.297-0.666-0.235-0.832
					c1.004-2.712,28.483-4.475,33.981-4.8l0.022-0.001c3.703,0.011,6.362,2.139,7.295,5.839c1.043,4.135-0.42,9.051-3.13,10.521
					C117.058,125.149,116.225,125.28,115.162,125.28z M80.095,113.55c0.003,0.001,0.016,0.026,0.06,0.069
					c2.935,2.838,32.755,12.962,37.092,10.611c2.405-1.304,3.728-5.934,2.775-9.714c-0.496-1.97-2.013-5.277-6.589-5.296
					C97.371,110.173,80.521,112.052,80.095,113.55z"/>
			</g>
			<path style="fill:#F16726;" d="M118.881,111.325c0.362,1.642,0.265,3.321-0.821,4.722c-1.417,1.828-3.865,2.506-6.063,2.758
				c-1.332,0.153-2.679,0.154-4.014,0.042c-1.727-0.144-3.435-0.495-5.149-0.737c-7.55-1.067-15.314-1.633-22.609-3.971
				c4.318,3.171,32.678,12.855,37.194,10.406C120.801,122.711,122.016,115.26,118.881,111.325z"/>
			<path style="fill:#FCBC7C;" d="M88.283,113.86c5.269,0.21,10.55-0.09,15.815-0.292c4.522-0.174,9.261-0.295,13.547-1.898
				c-0.019-0.06-0.035-0.121-0.056-0.181c-1.103-0.939-2.579-1.527-4.491-1.533c0,0-23.289,1.38-30.693,3.383
				C84.351,113.624,86.317,113.782,88.283,113.86z"/>
		</g>
		<path style="fill:#0B0405;" d="M113.58,152.69c-0.801,0-1.612-0.017-2.434-0.051c-28.869-1.192-34.139-26.796-34.189-27.055
			c-0.263-1.364,0.629-2.682,1.993-2.945c1.358-0.264,2.679,0.627,2.945,1.988c0.184,0.925,4.658,21.962,29.46,22.987
			c11.069,0.458,19.959-2.477,26.462-8.716c6.971-6.69,8.548-14.612,8.548-15.792c0-1.389,1.126-2.515,2.515-2.515
			c1.388,0,2.514,1.126,2.514,2.515c0,3.049-2.542,12.173-10.095,19.42C134.263,149.277,124.946,152.69,113.58,152.69z"/>
	</g>
	<g>
		<g>
			<g>
				<path d="M137.603,108.496c-3.787,0-6.868-3.081-6.868-6.868c0-3.787,3.081-6.867,6.868-6.867c3.787,0,6.867,3.08,6.867,6.867
					C144.47,105.415,141.389,108.496,137.603,108.496z"/>
			</g>
		</g>
		<g>
			<g>
				<path style="fill:#474142;" d="M137.574,106.928c-3.007,0-5.454-2.447-5.454-5.454s2.447-5.454,5.454-5.454
					s5.454,2.446,5.454,5.454S140.581,106.928,137.574,106.928z"/>
			</g>
		</g>
		<g>
			<g>
				<path style="fill:#FFFFFF;" d="M135.422,101.491c-0.984,0-1.785-0.801-1.785-1.785c0-0.984,0.801-1.785,1.785-1.785
					c0.984,0,1.785,0.801,1.785,1.785C137.206,100.69,136.406,101.491,135.422,101.491z"/>
			</g>
		</g>
	</g>
	<g>
		<g>
			<g>
				<path d="M95.771,108.496c-3.787,0-6.868-3.081-6.868-6.868c0-3.787,3.081-6.867,6.868-6.867s6.867,3.08,6.867,6.867
					C102.639,105.415,99.558,108.496,95.771,108.496z"/>
			</g>
		</g>
		<g>
			<g>
				<path style="fill:#474142;" d="M95.742,106.928c-3.007,0-5.454-2.447-5.454-5.454s2.447-5.454,5.454-5.454
					s5.454,2.446,5.454,5.454S98.75,106.928,95.742,106.928z"/>
			</g>
		</g>
		<g>
			<g>
				<path style="fill:#FFFFFF;" d="M93.591,101.491c-0.984,0-1.785-0.801-1.785-1.785c0-0.984,0.801-1.785,1.785-1.785
					s1.785,0.801,1.785,1.785C95.375,100.69,94.575,101.491,93.591,101.491z"/>
			</g>
		</g>
	</g>
</g>
</svg>
