<?xml version="1.0" encoding="utf-8"?>
<!-- Generator: Adobe Illustrator 27.5.0, SVG Export Plug-In . SVG Version: 6.00 Build 0)  -->
<svg version="1.1" id="Layer_1" xmlns="http://www.w3.org/2000/svg" xmlns:xlink="http://www.w3.org/1999/xlink" x="0px" y="0px"
	 viewBox="0 0 217.555 289.875" style="enable-background:new 0 0 217.555 289.875;" xml:space="preserve">
<g>
	<g>
		<ellipse style="fill:#D2D7DB;" cx="113.506" cy="272.424" rx="100.786" ry="13.102"/>
		<path style="fill:#DFE4E8;" d="M196.197,192.998c0,46.913-39.092,84.943-87.316,84.943c-48.222,0-87.314-38.03-87.314-84.943
			c0-46.911,39.092-84.941,87.314-84.941C157.105,108.057,196.197,146.087,196.197,192.998z"/>
		<path style="fill:#C3C8CD;" d="M171.011,237.976c-18.488,14.465-42.631,21.311-65.958,20.293
			c-25.264-1.103-51.392-11.449-67.731-31.302c-8.255-10.031-13.723-22.038-15.522-34.93c-0.074-0.527-0.13-1.054-0.191-1.582
			c-0.027,0.845-0.043,1.692-0.043,2.544c0,46.913,39.092,84.943,87.314,84.943c43.183,0,79.039-30.498,86.064-70.561
			C189.487,219.232,181.467,229.794,171.011,237.976z"/>
		<path style="fill:#FFFFFF;" d="M184.292,173.194c0,32.683-33.754,59.178-75.393,59.178c-41.637,0-75.391-26.495-75.391-59.178
			c0-32.682,33.754-59.177,75.391-59.177C150.538,114.017,184.292,140.512,184.292,173.194z"/>
		<g>
			<g>
				<path style="fill:#DFE4E8;" d="M180.705,260.528c0,0,0.633-11.796-12.031-7.982c-12.665,3.812-11.956,14.846-4.116,16.505
					C172.157,270.659,178.949,268.97,180.705,260.528z"/>
				<path style="fill:#FFFFFF;" d="M169.471,257.909c0,0,0.259-4.846-4.944-3.279c-5.203,1.566-4.913,6.1-1.691,6.781
					C165.958,262.072,168.749,261.377,169.471,257.909z"/>
				<path style="fill:#FFFFFF;" d="M175.002,254.555c0,0,0.13-2.432-2.481-1.645c-2.612,0.786-2.464,3.06-0.848,3.402
					C173.239,256.644,174.639,256.295,175.002,254.555z"/>
			</g>
			<g>
				<path style="fill:#D2D7DB;" d="M168.256,269.435c0,0,0.939-11.619-17.84-7.863c-18.778,3.756-17.727,14.623-6.103,16.257
					C155.581,279.413,165.653,277.75,168.256,269.435z"/>
				<path style="fill:#FFFFFF;" d="M158.625,268.416c0,0,0.596-7.396-11.358-5.005c-11.954,2.391-11.285,9.309-3.886,10.349
					C150.555,274.768,156.966,273.71,158.625,268.416z"/>
			</g>
			<g>
				<path style="fill:#DFE4E8;" d="M185.769,271.856c0,0,0.687-8.509-13.066-5.758c-13.753,2.75-12.982,10.709-4.469,11.905
					C176.486,279.164,183.862,277.945,185.769,271.856z"/>
				<path style="fill:#FFFFFF;" d="M178.687,270.331c0,0,0.396-4.904-7.532-3.318c-7.928,1.585-7.485,6.173-2.578,6.863
					C173.335,274.544,177.588,273.841,178.687,270.331z"/>
			</g>
		</g>
		<g>
			<g>
				<path style="fill:#DFE4E8;" d="M73.905,260.986c0,0,0.633-11.795-12.031-7.982c-12.664,3.812-11.954,14.846-4.116,16.505
					C65.356,271.117,72.149,269.428,73.905,260.986z"/>
				<path style="fill:#FFFFFF;" d="M62.671,258.368c0,0,0.259-4.847-4.944-3.279c-5.203,1.566-4.913,6.1-1.691,6.781
					C59.159,262.53,61.949,261.836,62.671,258.368z"/>
				<path style="fill:#FFFFFF;" d="M68.202,255.013c0,0,0.13-2.432-2.481-1.645c-2.61,0.785-2.464,3.06-0.848,3.402
					C66.438,257.102,67.839,256.753,68.202,255.013z"/>
			</g>
			<g>
				<path style="fill:#D2D7DB;" d="M61.458,269.894c0,0,0.938-11.618-17.84-7.862c-18.779,3.756-17.727,14.623-6.104,16.257
					C48.781,279.872,58.853,278.208,61.458,269.894z"/>
				<path style="fill:#FFFFFF;" d="M51.824,268.875c0,0,0.596-7.397-11.358-5.005c-11.954,2.39-11.284,9.309-3.885,10.348
					C43.755,275.227,50.166,274.168,51.824,268.875z"/>
			</g>
			<g>
				<path style="fill:#DFE4E8;" d="M78.969,272.315c0,0,0.688-8.509-13.066-5.758c-13.753,2.75-12.983,10.71-4.47,11.906
					C69.686,279.622,77.063,278.404,78.969,272.315z"/>
				<path style="fill:#FFFFFF;" d="M71.887,270.789c0,0,0.396-4.904-7.531-3.319c-7.928,1.586-7.485,6.174-2.576,6.864
					C66.536,275.003,70.788,274.3,71.887,270.789z"/>
			</g>
		</g>
		<path style="fill:#DFE4E8;" d="M53.459,127.963c2.627-0.977,5.362-1.369,8.111-0.689c2.561,0.634,4.921,1.862,7.102,3.325
			c4.586,3.077,8.492,7.218,13.358,9.866c11.578,6.301,25.483,6.137,38.057,3.383c6.432-1.409,12.593-3.373,18.275-6.762
			c2.755-1.642,5.402-3.449,8.085-5.205c2.603-1.703,5.254-3.584,8.186-4.678c2.549-0.95,5.141-1.363,7.724-1.352
			c-14.774-11.152-33.326-17.795-53.475-17.795c-21.738,0-41.617,7.73-56.901,20.516C52.466,128.356,52.956,128.149,53.459,127.963z
			"/>
		<g>
			<g>
				<path style="fill:#DFE4E8;" d="M53.984,90.725c7.89,30.594,39.779,48.82,71.228,40.71c31.447-8.11,50.545-39.485,42.657-70.079
					c-7.89-30.593-39.779-48.819-71.228-40.71C65.192,28.757,46.094,60.132,53.984,90.725z"/>
				<path style="fill:#FFFFFF;" d="M59.745,84.686c6.336,24.575,34.685,38.511,63.315,31.128
					c28.63-7.383,46.703-33.29,40.365-57.865c-6.336-24.574-34.685-38.511-63.315-31.128C71.48,34.204,53.408,60.113,59.745,84.686z
					"/>
				<path style="fill:#DFE4E8;" d="M132.226,35.917c-11.862,1.024-23.693,3.702-35.084,7.131
					C80.24,48.136,63.177,56.289,52.568,70.457c2.638-23.133,19.62-43.504,44.073-49.811c21.327-5.499,42.855,1.116,56.965,15.485
					C146.512,35.34,139.337,35.304,132.226,35.917z"/>
				<path style="fill:#DFE4E8;" d="M60.601,101.761c0.072-4.477,1.515-8.795,4.416-12.242c2.144-2.549,4.647-4.738,7.002-7.082
					c2.485-2.473,4.628-5.233,6.83-7.955c4.327-5.345,8.912-10.25,14.247-14.606c8.926-7.288,19.109-12.833,30.486-15.088
					c5.352-1.06,10.916-1.691,16.367-1.166c4.981,0.479,9.909,1.677,14.55,3.55c3.652,1.473,7.233,3.373,10.452,5.727
					c-11.095-25.392-39.882-39.583-68.31-32.253c-31.449,8.111-50.546,39.486-42.657,70.079c1.524,5.91,3.947,11.355,7.085,16.241
					C60.754,105.246,60.572,103.509,60.601,101.761z"/>
			</g>
		</g>
	</g>
	<g>
		<g>
			<path style="fill:#007C14;" d="M11.585,69.973c1.293,2.685,3.385,4.752,5.733,6.55c4.634,3.549,10.563,5.356,16.356,5.569
				c7,0.261,13.944-0.946,19.751-5.108c0.16-0.115,0.32-0.231,0.48-0.348c0.076,0.101,0.19,0.213,0.35,0.337l0.251,0.2
				c0.249,0.197,1.222,0.852,1.515,0.373c0.372-0.618,0.705-1.253,0.953-1.933c0.283-0.775,0.561-1.551,0.841-2.327
				c0.632-0.695,1.198-1.449,1.654-2.283c1.069-1.939,1.675-4.137,1.986-6.346c0.483-0.901,1.003-1.783,1.578-2.64
				c2.818-4.204,6.182-8.142,9.738-11.742c7.21-7.292,15.781-12.519,25.441-15.934c9.421-3.33,19.484-5.052,29.487-4.712
				c5.183,0.177,10.334,0.53,15.43,1.554c2.701,0.543,5.324,1.226,7.91,2.177c1.15,0.423,2.39,0.794,3.419,1.471
				c0.626,0.411,1.227,0.754,1.946,0.965c0.227,0.067,0.548-0.003,0.339-0.297c-0.872-1.221-1.719-2.569-2.721-3.686
				c-0.185-0.208-0.378-0.409-0.575-0.608c-1.418-1.808-3.182-3.715-3.453-4.014c-3.062-3.383-6.278-6.437-10.04-9.059
				c-6.388-4.452-13.593-7.704-21.075-9.83c-8.031-2.283-16.474-3.807-24.835-3.945c-10.232-0.166-20.217,2.08-29.295,6.845
				c-8.309,4.363-16.36,10.372-21.425,18.412c-3.897,6.186-5.7,13.43-6.904,20.572c-1.415,8.387-3.796,24.917-16.298,20.697
				c-3.478-1.174-5.411-4.142-7.618-6.833c-0.219-0.268-0.956-0.77-1.283-0.426C9.782,65.128,10.813,68.369,11.585,69.973z"/>
			<path style="fill:#00AD4E;" d="M11.221,63.623c0.327-0.344,1.064,0.159,1.283,0.426c2.207,2.692,4.14,5.659,7.618,6.833
				c12.502,4.22,14.883-12.31,16.298-20.697c1.204-7.142,3.007-14.386,6.904-20.572c1.633-2.595,3.583-4.975,5.747-7.158
				c-0.864,1.338-1.617,2.744-2.222,4.228c-1.412,3.47-1.949,7.261-1.35,10.974c0.585,3.604,1.96,7.531,5.597,9.062
				c4.402,1.852,8.218-0.848,11.191-3.93c3.534-3.667,6.794-7.658,10.812-10.823c3.98-3.135,8.42-5.841,12.888-8.217
				c4.503-2.397,9.205-4.467,14.097-5.937c10.066-3.024,20.956-3.181,31.211-0.972c1.329,0.287,2.648,0.605,3.954,0.977
				c0.831,0.235,1.627,0.581,2.457,0.823c0.698,0.206,1.595,0.185,1.324-0.796c-0.041-0.146-0.088-0.29-0.137-0.431
				c0.355,0.237,0.71,0.475,1.061,0.72c3.762,2.622,6.978,5.676,10.04,9.059c0.27,0.299,2.035,2.206,3.453,4.014
				c0.197,0.199,0.39,0.401,0.575,0.608c1.001,1.117,1.848,2.465,2.721,3.686c0.21,0.294-0.112,0.364-0.339,0.297
				c-0.719-0.211-1.32-0.554-1.946-0.965c-1.028-0.678-2.269-1.049-3.419-1.471c-2.586-0.95-5.209-1.634-7.91-2.177
				c-5.096-1.023-10.246-1.377-15.43-1.554c-10.003-0.341-20.067,1.382-29.487,4.712c-9.66,3.415-18.231,8.642-25.441,15.934
				c-3.556,3.6-6.92,7.538-9.738,11.742c-0.575,0.857-1.095,1.74-1.578,2.64c-0.31,2.209-0.916,4.407-1.986,6.346
				c-0.456,0.834-1.022,1.588-1.654,2.283c-0.281,0.776-0.558,1.552-0.841,2.327c-0.248,0.68-0.581,1.315-0.953,1.933
				c-0.293,0.479-1.266-0.176-1.515-0.373l-0.251-0.2c-0.16-0.125-0.273-0.237-0.35-0.337c-0.16,0.117-0.32,0.232-0.48,0.348
				c-5.807,4.162-12.75,5.368-19.751,5.108c-5.792-0.214-11.722-2.02-16.356-5.569c-2.348-1.798-4.44-3.865-5.733-6.55
				C10.813,68.369,9.782,65.128,11.221,63.623z"/>
			<path style="fill:#00AD4E;" d="M11.221,63.623c0.327-0.344,1.064,0.159,1.283,0.426c2.207,2.692,4.14,5.659,7.618,6.833
				c12.502,4.22,14.883-12.31,16.298-20.697c0.438-2.606,0.963-5.223,1.637-7.799c0.302,5.574-0.191,11.161-1.194,16.666
				c-0.319,1.755-0.755,3.516-1.181,5.248c-0.365,1.482-0.803,2.861-1.47,4.23c-0.823,1.683-1.889,3.837-0.392,5.472
				c1.664,1.813,5.032,0.748,6.86-0.178c1.027-0.52,2.136-1.182,2.811-2.144c1.26-1.799,11.171-17.532,14.165-20.573
				c3.804-3.862,7.701-7.653,11.725-11.289c7.323-6.618,16.035-11.741,25.056-15.682c9.905-4.328,20.694-6.881,31.555-5.917
				c5.04,0.449,9.926,1.627,14.81,2.903c1.195,0.313,2.528,0.613,3.623,1.215c0.887,0.489,1.689,1.102,2.5,1.704
				c0.075,0.057,0.147,0.112,0.222,0.165c0.97,0.964,1.918,1.958,2.847,2.985c0.27,0.299,2.035,2.206,3.453,4.014
				c0.197,0.199,0.39,0.401,0.575,0.608c1.001,1.117,1.848,2.465,2.721,3.686c0.21,0.294-0.112,0.364-0.339,0.297
				c-0.719-0.211-1.32-0.554-1.946-0.965c-1.028-0.678-2.269-1.049-3.419-1.471c-2.586-0.95-5.209-1.634-7.91-2.177
				c-5.096-1.023-10.246-1.377-15.43-1.554c-10.003-0.341-20.067,1.382-29.487,4.712c-9.66,3.415-18.231,8.642-25.441,15.934
				c-3.556,3.6-6.92,7.538-9.738,11.742c-0.575,0.857-1.095,1.74-1.578,2.64c-0.31,2.209-0.916,4.407-1.986,6.346
				c-0.456,0.834-1.022,1.588-1.654,2.283c-0.281,0.776-0.558,1.552-0.841,2.327c-0.248,0.68-0.581,1.315-0.953,1.933
				c-0.293,0.479-1.266-0.176-1.515-0.373l-0.251-0.2c-0.16-0.125-0.273-0.237-0.35-0.337c-0.16,0.117-0.32,0.232-0.48,0.348
				c-5.807,4.162-12.75,5.368-19.751,5.108c-5.792-0.214-11.722-2.02-16.356-5.569c-2.348-1.798-4.44-3.865-5.733-6.55
				C10.813,68.369,9.782,65.128,11.221,63.623z"/>
			<g>
				<path style="fill:#E8ECE7;" d="M51.564,64.704c1.073-1.542,2.307-2.998,3.57-4.355c5.359-5.758,10.844-11.519,16.478-17.005
					c3.767-3.67,7.866-7.214,12.324-10.03c9.18-5.803,19.309-9.688,30.059-11.231c15.443-2.216,32.484,0.787,44.021,11.939
					c2.281,2.204,4.469,4.683,6.224,7.361c0.344,0.696,0.644,1.41,0.878,2.143c0.303,0.943,0.559,2.045,0.248,3.021
					c-0.307,0.957-1.269,1.767-2.311,1.648c-1.654-0.19-3.25-1.042-4.713-1.787c-1.061-0.542-2.417-1.522-2.16-1.42
					c-3.498-1.852-7.271-3.201-11.141-3.94c-10.752-2.056-21.826-0.307-31.983,3.428c-10.293,3.781-19.548,9.059-27.613,16.516
					c-4.001,3.699-7.408,7.903-11.214,11.777c-4.107,4.181-9.079,12.122-15.251,13.252c-4.767,0.874-8.333-2.909-9.946-6.897
					C46.883,73.821,48.624,68.934,51.564,64.704z"/>
				<path style="opacity:0.4;fill:#ADB5B1;" d="M51.564,64.704c1.073-1.542,2.307-2.998,3.57-4.355
					c0.547-0.588,1.096-1.175,1.646-1.763c-1.302,2.313-2.161,5.005-0.94,7.529c0.827,1.712,2.266,3.259,3.702,4.481
					c1.216,1.037,2.566,1.894,4.199,2.034c3.385,0.295,6.607-1.602,9.248-3.514c2.937-2.127,5.513-4.658,8.271-7
					c15.077-12.806,33.319-25.607,54.121-24.057c5.233,0.391,10.234,1.697,15.159,3.47c2.381,0.858,4.734,1.778,7.109,2.655
					c1.639,0.605,3.468,1.525,5.257,1.551c1.99,0.028,2.301-1.339,1.898-3.088c0.113,0.29,0.221,0.581,0.314,0.877
					c0.303,0.943,0.559,2.045,0.248,3.021c-0.307,0.957-1.269,1.767-2.311,1.648c-1.654-0.19-3.25-1.042-4.713-1.787
					c-1.061-0.542-2.417-1.522-2.16-1.42c-3.498-1.852-7.271-3.201-11.141-3.94c-10.752-2.056-21.826-0.307-31.983,3.428
					c-10.293,3.781-19.548,9.059-27.613,16.516c-4.001,3.699-7.408,7.903-11.214,11.777c-4.107,4.181-9.079,12.122-15.251,13.252
					c-4.767,0.874-8.333-2.909-9.946-6.897C46.883,73.821,48.624,68.934,51.564,64.704z"/>
				<path style="fill:#FFFFFF;" d="M71.533,48.819c7.992-12.412,25.662-17.081,34.543-20.196c4.883-1.713,9.953-2.908,15.1-3.456
					c5.064-0.537,10.086-0.237,15.117,0.468c4.617,0.646,9.231,1.712,13.47,3.693c1.899,0.887,3.635,2.028,5.297,3.293
					c1.609,1.227,3.177,2.581,4.386,4.217c0.242,0.325,0.458,0.673,0.636,1.037c1.09,1.238,2.005,2.621,2.59,4.266
					c0.064,0.176-0.142,0.293-0.279,0.194c-13.764-9.96-33.104-10.237-48.69-4.844c-3.866,1.34-7.592,3.106-11.042,5.31
					c-3.662,2.34-7.493,4.594-10.542,7.685C74.017,68.849,70.033,51.147,71.533,48.819z"/>
			</g>
			<g>
				<path style="fill:#EDF6ED;" d="M4,68.192c0.52,0.688,1.377,1.289,2.247,1.623c0.235,0.52,0.551,1,0.916,1.401
					c1.671,1.838,3.971,2.86,6.435,3.105c1.941,0.193,5.008,0.018,5.853-2.179c0.177-0.46,0.296-0.967,0.343-1.486
					c0.802-0.04,1.572-0.285,2.192-0.784c1.14-0.912,1.416-2.735,0.575-3.938c-0.133-0.189-0.271-0.356-0.415-0.508
					c0.95-0.98,1.28-2.463,0.326-3.958c-0.623-0.971-1.481-1.597-2.551-1.869c0.018-0.221,0.008-0.467-0.034-0.731
					c-0.144-0.928-1.045-1.61-1.774-2.075c-0.857-0.546-3.627-0.799-4.488,0.151c-0.484-0.283-0.939-0.491-1.194-0.569
					c-2.352-0.731-5.427-0.215-7.091,1.753c-1.338,1.582-1.59,3.742-0.829,5.612c-0.235,0.19-0.445,0.402-0.6,0.617
					C2.999,65.608,3.069,66.966,4,68.192z"/>
				<path style="fill:#EDF6ED;" d="M4,68.192c0.52,0.688,1.377,1.289,2.247,1.623c0.235,0.52,0.551,1,0.916,1.401
					c1.671,1.838,3.971,2.86,6.435,3.105c1.941,0.193,5.008,0.018,5.853-2.179c0.177-0.46,0.296-0.967,0.343-1.486
					c0.802-0.04,1.572-0.285,2.192-0.784c1.14-0.912,1.416-2.735,0.575-3.938c-0.133-0.189-0.271-0.356-0.415-0.508
					c0.95-0.98,1.28-2.463,0.326-3.958c-0.623-0.971-1.481-1.597-2.551-1.869c0.018-0.221,0.008-0.467-0.034-0.731
					c-0.144-0.928-1.045-1.61-1.774-2.075c-0.857-0.546-3.627-0.799-4.488,0.151c-0.484-0.283-0.939-0.491-1.194-0.569
					c-2.352-0.731-5.427-0.215-7.091,1.753c-1.338,1.582-1.59,3.742-0.829,5.612c-0.235,0.19-0.445,0.402-0.6,0.617
					C2.999,65.608,3.069,66.966,4,68.192z"/>
				<path style="fill:#CED6D0;" d="M4,68.192c0.52,0.688,1.377,1.289,2.247,1.623c0.235,0.52,0.551,1,0.916,1.401
					c1.671,1.838,3.971,2.86,6.435,3.105c1.941,0.193,5.008,0.018,5.853-2.179c0.177-0.46,0.296-0.967,0.343-1.486
					c0.802-0.04,1.572-0.285,2.192-0.784c1.14-0.912,1.416-2.735,0.575-3.938c-0.133-0.189-0.271-0.356-0.415-0.508
					c0.95-0.98,1.28-2.463,0.326-3.958c-0.623-0.971-1.481-1.597-2.551-1.869c0.018-0.221,0.008-0.467-0.034-0.731
					c-0.144-0.928-1.045-1.61-1.774-2.075c-0.857-0.546-3.627-0.799-4.488,0.151c-0.484-0.283-0.939-0.491-1.194-0.569
					c-2.352-0.731-5.427-0.215-7.091,1.753c-1.338,1.582-1.59,3.742-0.829,5.612c-0.235,0.19-0.445,0.402-0.6,0.617
					C2.999,65.608,3.069,66.966,4,68.192z"/>
				<path style="fill:#EDF6ED;" d="M9.5,64.783c0.3,0.393,0.792,0.74,1.29,0.93c0.137,0.298,0.317,0.574,0.528,0.804
					c0.959,1.055,2.28,1.643,3.693,1.784c1.115,0.111,2.875,0.01,3.359-1.253c0.102-0.263,0.171-0.555,0.198-0.851
					c0.46-0.024,0.902-0.166,1.257-0.45c0.657-0.525,0.814-1.571,0.33-2.261c-0.075-0.11-0.154-0.205-0.235-0.291
					c0.542-0.564,0.733-1.414,0.184-2.272c-0.356-0.557-0.85-0.918-1.464-1.074c0.011-0.127,0.006-0.266-0.018-0.42
					c-0.084-0.533-0.601-0.925-1.018-1.191c-0.493-0.314-2.083-0.46-2.578,0.087c-0.278-0.162-0.54-0.281-0.685-0.326
					c-1.351-0.418-3.114-0.123-4.07,1.006c-0.769,0.908-0.914,2.148-0.476,3.222c-0.136,0.109-0.256,0.231-0.345,0.354
					C8.927,63.299,8.968,64.079,9.5,64.783z"/>
				<path style="fill:#FFFFFF;" d="M12.533,63.944c0.17,0.224,0.45,0.422,0.735,0.531c0.078,0.17,0.18,0.327,0.3,0.458
					c0.548,0.603,1.302,0.938,2.108,1.017c0.637,0.064,1.64,0.007,1.917-0.714c0.057-0.148,0.096-0.316,0.112-0.485
					c0.263-0.013,0.515-0.093,0.719-0.257c0.372-0.299,0.463-0.896,0.187-1.29c-0.042-0.062-0.088-0.116-0.135-0.166
					c0.309-0.32,0.419-0.807,0.106-1.296c-0.202-0.317-0.486-0.523-0.835-0.613c0.006-0.072,0.001-0.152-0.013-0.239
					c-0.045-0.305-0.341-0.527-0.579-0.679c-0.282-0.178-1.188-0.261-1.472,0.05c-0.156-0.093-0.306-0.161-0.389-0.186
					c-0.77-0.239-1.776-0.071-2.323,0.574c-0.438,0.518-0.521,1.225-0.272,1.839c-0.078,0.061-0.146,0.13-0.197,0.2
					C12.206,63.097,12.228,63.543,12.533,63.944z"/>
			</g>
		</g>
		<path style="fill:#FFFCD9;" d="M131.779,14.573c0,0-50.144-25.45-81.017,9.421C50.762,23.995,75.106,0.421,131.779,14.573z"/>
	</g>
	<g>
		<path style="fill:#80CEC5;" d="M66.862,130.306c16.962,5.675,35.068,12.058,53.217,11.867c11.664-0.122,24.345-0.949,34.857-6.357
			c2.97-1.527,6.009-3.104,8.594-5.362c1.85-1.617,4.876-4.132,5.716-6.669c0.649-1.952-1.704-3.074-2.997-3.736
			c-1.602-0.821-2.898-2.194-4.345-3.296c0.108-0.18,0.2-0.336,0.275-0.459c1.382-2.228,2.589-4.645,3.327-7.231
			c0.817-2.873,1.997-6.053,1.318-9.096c-0.086-0.387-0.578-0.86-0.953-0.772c-0.422,0.099-0.779,0.251-1.106,0.443
			c0.016-0.017,0.033-0.031,0.047-0.046c0.052-0.058-0.129-0.235-0.19-0.175c-6.417,6.117-16.393,8.481-24.454,10.361
			c-9.004,2.1-18.23,3.098-27.432,2.558c-18.806-1.104-37.533-5.34-54.655-14.16c-2.177-1.124-1.922,2.648-1.355,3.59
			c1.28,2.127,4.049,3.18,4.399,5.785c0.471,3.522-4.584,8.609-6.251,12.92C53.845,123.133,63.808,129.285,66.862,130.306z"/>
		<g>
			<path style="fill:#FF0000;" d="M165.447,128.756c-2.153-2.485-4.832-4.732-6.693-7.132c-1.044-1.348-1.993-2.84-2.383-4.506
				c-0.521-2.226-0.003-4.455,0.775-6.569c0.946-2.572,2.242-5.115,3.014-7.758c1.61-0.983,3.117-2.093,4.464-3.375
				c0.061-0.06,0.242,0.117,0.19,0.175c-0.014,0.015-0.031,0.029-0.047,0.046c0.327-0.192,0.684-0.345,1.106-0.443
				c0.375-0.088,0.867,0.385,0.953,0.772c0.679,3.043-0.501,6.223-1.318,9.096c-0.738,2.586-1.945,5.004-3.327,7.231
				c-0.075,0.122-0.167,0.279-0.275,0.459c1.447,1.103,2.743,2.475,4.345,3.296c1.293,0.662,3.645,1.784,2.997,3.736
				C168.661,125.551,167.017,127.308,165.447,128.756z"/>
			<path style="fill:#FF0000;" d="M142.293,131.804c-0.49-1.35-1.014-2.692-1.599-4.008c-0.993-2.234-2.452-4.303-2.995-6.713
				c-0.874-3.876,0.371-7.72,2.173-11.239c0.1-0.022,0.2-0.043,0.297-0.067c2.835-0.661,5.904-1.386,8.973-2.309
				c-0.974,2.49-1.826,5.016-1.749,7.637c0.081,2.789,1.568,5.439,2.94,7.81c1.752,3.031,3.786,5.939,5.28,9.106
				c0.414,0.876,0.84,1.857,1.115,2.862c-0.596,0.314-1.194,0.625-1.79,0.931c-3.301,1.697-6.815,2.944-10.443,3.859
				C144.023,136.993,143.22,134.358,142.293,131.804z"/>
			<path style="fill:#FF0000;" d="M114.669,132.03c0.014-2.255,0.038-4.51,0.031-6.765c-0.006-2.03-0.163-4.106,0.103-6.126
				c0.251-1.9,0.824-3.71,1.865-5.343c0.282-0.443,0.569-0.88,0.844-1.32c3.082,0.006,6.162-0.15,9.229-0.455
				c-0.807,2.184-1.372,4.447-1.348,6.765c0.045,4.126,1.61,8.062,2.786,11.971c0.877,2.911,1.622,5.913,1.865,8.946
				c0.054,0.679,0.092,1.389,0.092,2.105c-3.386,0.236-6.762,0.33-10.058,0.364c-1.784,0.02-3.567-0.028-5.351-0.13
				C114.763,138.708,114.647,135.367,114.669,132.03z"/>
			<path style="fill:#FF0000;" d="M92.276,119.977c0.391-3.171,0.895-6.609,1.94-9.819c3.671,0.658,7.363,1.181,11.068,1.568
				c-2.494,9.306-3.917,18.9-4.268,28.517c-3.439-0.675-6.86-1.498-10.261-2.413C90.575,131.874,91.551,125.866,92.276,119.977z"/>
			<path style="fill:#FF0000;" d="M54.874,120.472c1.667-4.311,6.723-9.398,6.251-12.92c-0.35-2.605-3.118-3.658-4.399-5.785
				c-0.566-0.943-0.821-4.714,1.355-3.59c3.592,1.85,7.257,3.491,10.976,4.949c-0.252,0.903-0.466,1.817-0.632,2.743
				c-0.615,3.426-0.498,6.887-0.554,10.349c-0.067,4.075-0.13,9.537-2.138,13.626C61.895,128.068,53.95,122.863,54.874,120.472z"/>
			<path style="fill:#FF0000;" d="M79.012,120.137c0.602-4.234,1.431-8.643,3.021-12.715c3.858,1.054,7.755,1.933,11.681,2.649
				c-1.01,3.102-1.531,6.405-1.91,9.489c-0.736,5.972-1.742,12.079-1.578,18.128c-4.185-1.139-8.332-2.422-12.429-3.751
				C77.848,129.314,78.367,124.679,79.012,120.137z"/>
		</g>
		<path style="fill:#ADAFB2;" d="M66.862,130.306c16.962,5.675,35.068,12.058,53.217,11.867c11.664-0.122,24.345-0.949,34.857-6.357
			c2.97-1.527,6.009-3.104,8.594-5.362c1.85-1.617,4.876-4.132,5.716-6.669c0.244-0.731,0.067-1.344-0.319-1.861
			c-0.023,0.322-0.088,0.647-0.202,0.971c-0.627,1.77-2.2,2.986-3.763,3.962c-1.916,1.197-4.04,2.067-6.122,2.946
			c-2.91,1.229-5.799,2.408-8.844,3.298c-7.398,2.16-15.195,2.911-22.896,2.748c-5.2-0.11-10.651-0.521-15.768-1.521
			c-1.814-0.355-8.47-2.119-5.845-5.166c1.004-1.164,3.059-1.385,4.492-1.568c1.984-0.254,3.998-0.254,5.998-0.271
			c2.695-0.024,5.404-0.365,8.085-0.61c3.706-0.337,7.407-0.746,11.09-1.273c7.466-1.066,14.914-2.684,21.881-5.569
			c1.889-0.781,3.635-1.714,5.291-2.788c-0.139-0.112-0.278-0.224-0.419-0.331c0.108-0.18,0.2-0.336,0.275-0.459
			c1.382-2.228,2.589-4.645,3.327-7.231c0.817-2.873,1.997-6.053,1.318-9.096c-0.01-0.048-0.027-0.097-0.049-0.146
			c-0.016,0.557-0.085,1.079-0.116,1.374c-0.29,2.674-1.503,4.968-3.298,6.983c-4.583,5.146-11.403,8.53-17.914,10.702
			c-6.678,2.227-13.78,3.322-20.813,3.694c-3.344,0.177-6.716,0.072-10.01-0.545c-1.484-0.278-2.933-0.707-4.337-1.248
			c-1.255-0.483-2.779-1.07-3.643-2.129c-0.926-1.133,0.857-2.059,1.684-2.426c2.975-1.32,6.397-2.004,9.538-2.864
			c1.218-0.333,2.441-0.649,3.664-0.967c-2.929,0.127-5.863,0.113-8.795-0.06c-14.083-0.827-28.121-3.41-41.473-8.359
			c-0.786,0.947-1.718,1.736-2.963,2.109c-1.483,0.443-3.069-0.107-4.394-0.743c-2.385-1.144-6.005-3.424-6.386-6.251
			c-0.02-0.144,0.105-0.254,0.239-0.274c0.446-0.067,0.932-0.093,1.435-0.089c-0.371-0.188-0.745-0.363-1.113-0.553
			c-2.177-1.124-1.922,2.648-1.355,3.59c1.28,2.127,4.049,3.18,4.399,5.785c0.471,3.522-4.584,8.609-6.251,12.92
			C53.845,123.133,63.808,129.285,66.862,130.306z M57.467,118.102c0.135-1.086,0.865-2.276,1.967-2.629
			c-0.031-0.166,0.078-0.351,0.287-0.29c1.606,0.474,3.28,1.251,4.038,2.813c0.809,1.672,0.622,3.555,0.319,5.326
			c-0.024,0.138-0.169,0.226-0.306,0.203C61.01,123.038,57.055,121.417,57.467,118.102z"/>
		<g>
			<path style="fill:#80CEC5;" d="M58.91,231.079c2.454,1.666,6.071,1.656,8.905,2.124c3.536,0.586,7.027,1.344,10.489,2.263
				c4.225,1.119,8.309,2.772,12.502,3.997c1.647,0.481,3.664,1.743,5.447,1.519c1.882-0.236,1.875-2.67,1.927-4.135
				c0.106-2.97,0.353-5.934,0.418-8.909c0.172-7.929-0.296-15.85-0.626-23.771c-0.669-16.01-0.048-32.038,0.024-48.062
				c0.035-8.023,0.208-16.069,1.449-24.016c1.059-6.785,3.032-13.402,4.688-20.073c1.243-0.103,2.487-0.317,3.722-0.432
				c0.106-0.009,0.276-0.064,0.262-0.207c-0.501-4.486-6.248-5.234-9.855-5.672c-3.232-0.392-6.411-1.182-9.683-1.234
				c-0.431-0.006-0.861-0.005-1.289-0.001c-4.229-3.935-9.851-6.248-14.151-1.716c-10.505,11.074-7.336,28.179-7.452,41.963
				c-0.132,15.843-0.762,31.76-3.133,47.458c-0.632,4.177-0.891,8.356-1.296,12.556c-0.371,3.829-1.17,7.512-2.049,11.255
				c-0.813,3.463-1.658,6.924-2.102,10.452C56.859,228.4,57.176,229.902,58.91,231.079z"/>
			<g>
				<path style="fill:#FF0000;" d="M103.567,114.247c-3.152-1.881-6.806-2.175-10.595-2.229c-2.134-0.033-4.478,0.071-6.543-0.539
					c-1.551-0.459-2.97-1.313-4.322-2.163c-2.409-1.516-6.153-4.546-9.742-5.701c0.251-0.291,0.504-0.581,0.773-0.862
					c4.3-4.532,9.922-2.219,14.151,1.716c0.428-0.004,0.858-0.005,1.289,0.001c3.271,0.052,6.451,0.842,9.683,1.234
					c3.607,0.438,9.354,1.186,9.855,5.672c0.014,0.143-0.156,0.198-0.262,0.207c-1.235,0.115-2.479,0.329-3.722,0.432
					C103.947,112.759,103.759,113.503,103.567,114.247z"/>
				<path style="fill:#FF0000;" d="M99.179,133.989c-1.984-0.75-3.97-1.526-6.093-1.712c-2.29-0.2-4.553-0.005-6.808,0.404
					c-2.365,0.428-4.743,1.104-7.168,1.063c-4.504-0.075-8.705-2.086-12.528-4.258c-0.371-0.212-0.797-0.466-1.253-0.722
					c-0.006-4.404,0.236-8.8,1.167-12.95c2.076,1.018,4.226,1.913,6.461,2.551c3.756,1.073,7.611,1.606,11.514,1.328
					c3.463-0.246,6.942-0.667,10.422-0.513c2.31,0.103,5.023,0.432,6.931,1.802c-0.933,3.677-1.796,7.366-2.379,11.108
					C99.346,132.721,99.265,133.355,99.179,133.989z"/>
				<path style="fill:#FF0000;" d="M97.974,159.423c-1.268-0.142-2.546-0.208-3.822-0.249c-3.706-0.115-7.431,0.011-11.132-0.251
					c-4.579-0.322-8.64-2.626-13.046-3.679c-1.471-0.352-2.954-0.559-4.447-0.627c0.082-3.301,0.133-6.602,0.16-9.901
					c0.011-1.457-0.014-2.954-0.055-4.473c1.467,0.604,2.841,1.41,4.179,2.29c3.354,2.205,6.611,4.073,10.504,5.222
					c4.098,1.211,8.376,2.03,12.66,2.235c1.657,0.079,3.395,0.098,5.097-0.086c-0.044,2.067-0.065,4.135-0.075,6.199
					C97.992,157.21,97.983,158.317,97.974,159.423z"/>
				<path style="fill:#FF0000;" d="M87.413,188.357c-4.43-0.186-8.951-0.978-12.94-2.927c-3.443-1.68-6.818-4.099-10.372-5.915
					c0.273-2.848,0.503-5.7,0.694-8.555c5.237,0.881,10.377,2.781,15.557,3.745c4.389,0.815,9.099,1.716,13.557,0.855
					c1.375-0.265,2.606-0.739,3.871-1.276c-0.061,4.329-0.108,8.656-0.11,12.983C94.364,188.223,90.827,188.5,87.413,188.357z"/>
				<path style="fill:#FF0000;" d="M98.405,214.284c-1.657,0.475-3.301,0.792-5.104,0.71c-5.326-0.238-9.38-3.617-13.659-6.331
					c-4.017-2.548-8.174-4.988-12.689-6.602c-1.751-0.624-3.525-1.118-5.324-1.48c0.246-2.806,0.501-5.608,0.925-8.407
					c0.055-0.37,0.105-0.74,0.159-1.11c5.612,1.643,10.634,5.14,16.158,7.148c3.873,1.408,8.03,2.262,12.164,1.645
					c2.31-0.346,4.539-1,6.751-1.725c0.045,2.012,0.102,4.023,0.187,6.033C98.112,207.538,98.275,210.912,98.405,214.284z"/>
				<path style="fill:#FF0000;" d="M58.969,217.008c2.233,0.133,4.436,0.564,6.546,1.389c5.076,1.986,9.354,5.43,14.326,7.618
					c4.222,1.858,8.762,3.49,13.378,4.069c1.646,0.207,3.579,0.318,5.305-0.054c-0.101,2.274-0.262,4.543-0.344,6.816
					c-0.052,1.465-0.045,3.9-1.927,4.135c-1.783,0.224-3.8-1.038-5.447-1.519c-4.193-1.224-8.278-2.877-12.502-3.997
					c-3.461-0.919-6.952-1.678-10.489-2.263c-2.834-0.469-6.451-0.458-8.905-2.124c-1.734-1.177-2.051-2.679-1.803-4.642
					C57.506,223.256,58.234,220.131,58.969,217.008z"/>
			</g>
			<path style="fill:#ADAFB2;" d="M58.91,231.079c2.454,1.666,6.071,1.656,8.905,2.124c3.536,0.586,7.027,1.344,10.489,2.263
				c4.225,1.119,8.309,2.772,12.502,3.997c1.647,0.481,3.664,1.743,5.447,1.519c1.882-0.236,1.875-2.67,1.927-4.135
				c0.106-2.97,0.353-5.934,0.418-8.909c0.172-7.929-0.296-15.85-0.626-23.771c-0.669-16.01-0.048-32.038,0.024-48.062
				c0.035-8.023,0.208-16.069,1.449-24.016c1.059-6.785,3.032-13.402,4.688-20.073c1.243-0.103,2.487-0.317,3.722-0.432
				c0.106-0.009,0.276-0.064,0.262-0.207c-0.501-4.486-6.248-5.234-9.855-5.672c-3.232-0.392-6.411-1.182-9.683-1.234
				c-0.431-0.006-0.861-0.005-1.289-0.001c-4.229-3.935-9.851-6.248-14.151-1.716c-10.505,11.074-7.336,28.179-7.452,41.963
				c-0.132,15.843-0.762,31.76-3.133,47.458c-0.632,4.177-0.891,8.356-1.296,12.556c-0.371,3.829-1.17,7.512-2.049,11.255
				c-0.813,3.463-1.658,6.924-2.102,10.452C56.859,228.4,57.176,229.902,58.91,231.079z M65.545,219.69
				c0.127-2.792,0.773-5.542,0.896-8.325c0.169-3.808,0.844-7.579,1.497-11.33c0.698-4.005,1.212-8.007,1.612-12.051
				c0.83-8.422,1.429-16.866,1.773-25.321c0.324-7.99,0.229-15.942,0.026-23.933c-0.235-9.116-0.497-18.705,2.094-27.561
				c0.676-2.308,1.721-4.81,3.948-6.074c2.446-1.389,5.571-0.54,8.033,0.327c0.137,0.049,0.171,0.222,0.122,0.34
				c-4.053,9.603-4.465,20.432-5.407,30.653c-0.969,10.523-1.685,21.101-1.334,31.67c2.714-6.396,3.876-13.286,4.819-20.114
				c0.899-6.493,1.766-12.989,2.636-19.485c0.787-5.88,1.758-12.158,4.988-17.302c1.371-2.187,3.405-4.455,6.189-4.666
				c1.783-0.133,4.345,0.974,4.708,2.864c0.052,0.27,0.072,0.542,0.071,0.814c0.17,0.006,0.336,0.163,0.232,0.352
				c-0.119,0.218-0.231,0.438-0.347,0.657c-0.292,1.389-1.09,2.74-1.769,3.907c-0.098,0.169-0.198,0.337-0.3,0.504
				c-4.72,11.377-5.576,24.054-5.93,36.21c-0.477,16.404-0.503,32.817-1.02,49.218c-0.13,4.19-0.3,8.378-0.516,12.565
				c-0.187,3.677,0.072,7.339,0.098,11.016c0.017,2.778,0.067,6.181-1.307,8.699c-0.816,1.495-2.464,1.512-3.984,1.287
				c-2.473-0.365-5.025-0.914-7.397-1.697c-1.285-0.424-2.716-0.998-3.361-2.253c-0.729-1.42-0.538-3.152-0.423-4.681
				c0.269-3.536,0.642-7.074,1.028-10.599c0.739-6.745,1.711-13.463,2.747-20.168c0.402-2.6,0.82-5.197,1.238-7.796
				c-1.574,5.389-3.399,10.714-5.083,16.068c-2.47,7.854-4.376,16.27-9.019,23.243c-0.098,0.146-0.337,0.217-0.449,0.035
				C65.368,224.696,65.437,222.02,65.545,219.69z"/>
		</g>
		<path style="opacity:0.3;fill:#FFFFFF;" d="M89.183,208.766c0.313-4.688-0.187-9.373-0.392-14.057
			c-0.431-9.727-0.574-19.5-0.635-29.236c-0.062-9.581,0.674-19.366,2.107-28.848c0.697-4.613,1.606-9.306,2.913-13.795
			c1.184-4.06,3.26-7.989,5.254-11.717c0.06-0.111,0.404,0.111,0.371,0.22c-1.259,4.147-2.721,8.251-3.743,12.461
			c-1.113,4.579-1.745,9.404-2.385,14.067c-1.314,9.568-1.779,19.434-1.656,29.079c0.119,9.391,0.483,18.74,0.292,28.133
			c-0.093,4.561,0.183,9.14-0.303,13.686c-0.489,4.594-1.544,9.111-1.932,13.72c-0.02,0.234-0.605-0.103-0.602-0.308
			C88.505,217.695,88.883,213.231,89.183,208.766z"/>
		<path style="opacity:0.3;fill:#FFFFFF;" d="M77.89,119.324c0.592-3.194,0.905-6.828,3.195-9.357
			c0.075-0.081,0.327,0.093,0.282,0.191c-1.52,3.343-1.46,7.395-1.993,10.968c-0.606,4.073-1.328,8.138-1.769,12.233
			c-0.043,0.387-0.939-0.186-0.955-0.489C76.416,128.275,77.053,123.833,77.89,119.324z"/>
		<path style="opacity:0.3;fill:#FFFFFF;" d="M128.017,131.03c7.005-0.459,13.75-0.677,20.592-2.374
			c3.016-0.749,5.928-1.7,8.822-2.809c2.405-0.921,5.822-2.009,7.721-3.797c0.113-0.106,0.449,0.113,0.426,0.252
			c-0.32,1.925-2.269,2.929-3.795,3.936c-3.035,2.007-6.624,3.132-10.123,4.062c-7.643,2.034-15.407,1.489-23.226,1.208
			C128.252,131.501,127.704,131.051,128.017,131.03z"/>
		<path style="opacity:0.3;fill:#FFFFFF;" d="M129.011,115.49c6.635,0.2,12.993-2.08,19.036-4.498
			c3.29-1.317,6.475-3.009,9.615-4.632c1.17-0.605,2.321-1.245,3.491-1.852c1.157-0.6,2.787-1.086,3.548-2.188
			c0.098-0.142,0.514,0.142,0.48,0.286c-0.516,2.107-2.076,3.351-3.763,4.641c-2.964,2.268-6.595,4.005-10.014,5.513
			c-3.451,1.522-7.122,2.143-10.833,2.735c-3.651,0.581-7.583,1.135-11.25,0.413C129.198,115.885,128.738,115.482,129.011,115.49z"
			/>
	</g>
	<g>
		<g>
			<path style="fill:#332F30;" d="M108.001,71.258c0,2.107-1.708,3.816-3.816,3.816c-2.107,0-3.815-1.708-3.815-3.816
				c0-2.107,1.708-3.815,3.815-3.815C106.293,67.442,108.001,69.151,108.001,71.258z"/>
			<circle style="fill:#FFFFFF;" cx="102.814" cy="69.988" r="1.087"/>
		</g>
		<g>
			<path style="fill:#332F30;" d="M134.728,71.258c0,2.107-1.708,3.816-3.815,3.816c-2.107,0-3.816-1.708-3.816-3.816
				c0-2.107,1.708-3.815,3.816-3.815C133.02,67.442,134.728,69.151,134.728,71.258z"/>
			<path style="fill:#FFFFFF;" d="M130.629,69.988c0,0.601-0.487,1.087-1.087,1.087c-0.6,0-1.087-0.487-1.087-1.087
				c0-0.6,0.487-1.087,1.087-1.087C130.142,68.901,130.629,69.387,130.629,69.988z"/>
		</g>
		<g>
			<path style="fill:#F47C59;" d="M118.017,87.86c1.732-0.723,2.621-2.556,2.661-4.367c0.025-1.1-0.242-2.228-0.846-3.156
				c-0.66-1.014-1.771-1.741-2.988-1.835c-0.046-0.004-0.092-0.002-0.139-0.004c-2.627,0.881-5.249,1.834-7.853,2.836
				c-0.828,0.319-1.732,0.333-2.501,0.958c-0.173,0.14-0.398,0.55-0.179,0.816c1.213,1.475,5.572,3.967,9.112,5.178
				C116.221,88.321,117.158,88.218,118.017,87.86z"/>
			<path style="fill:#F47C59;" d="M119.627,82.577c-0.971,0.642-2.173,0.868-3.313,0.962c-1.37,0.113-2.753,0.027-4.118-0.117
				c-1.355-0.143-2.702-0.356-4.048-0.569c-0.66-0.105-1.326-0.22-1.993-0.298c-0.085,0.176-0.118,0.392,0.016,0.555
				c1.213,1.476,5.572,3.967,9.112,5.178c0.938,0.034,1.875-0.069,2.734-0.427c1.732-0.723,2.621-2.556,2.661-4.367
				c0.013-0.571-0.055-1.149-0.205-1.703C120.241,82.09,119.96,82.356,119.627,82.577z"/>
		</g>
		<path style="fill:#332F30;" d="M116.249,104.292c-8.89,0-14.621-3.696-17.96-6.983c-4.011-3.949-5.488-8.114-5.549-8.289
			c-0.267-0.77,0.14-1.61,0.91-1.878c0.768-0.267,1.608,0.139,1.876,0.907l0,0c0.013,0.037,1.36,3.779,4.924,7.246
			c4.727,4.6,10.965,6.593,18.537,5.923c7.701-0.681,13.605-3.583,17.547-8.624c2.957-3.781,3.662-7.432,3.669-7.468
			c0.148-0.799,0.916-1.332,1.716-1.184c0.8,0.146,1.331,0.91,1.187,1.71c-0.031,0.173-0.801,4.292-4.149,8.633
			c-3.069,3.979-8.98,8.922-19.71,9.872C118.211,104.248,117.211,104.292,116.249,104.292z"/>
		<radialGradient id="SVGID_1_" cx="144.4586" cy="78.8643" r="8.0281" gradientUnits="userSpaceOnUse">
			<stop  offset="0.0092" style="stop-color:#F27692"/>
			<stop  offset="0.1463" style="stop-color:#F37C97"/>
			<stop  offset="0.3293" style="stop-color:#F48DA4"/>
			<stop  offset="0.5384" style="stop-color:#F7A9BA"/>
			<stop  offset="0.7666" style="stop-color:#FAD0D9"/>
			<stop  offset="1" style="stop-color:#FFFFFF"/>
		</radialGradient>
		<path style="opacity:0.75;fill:url(#SVGID_1_);" d="M144.459,70.836c-4.434,0-8.028,3.594-8.028,8.028
			c0,4.434,3.594,8.028,8.028,8.028c4.434,0,8.028-3.594,8.028-8.028C152.487,74.431,148.892,70.836,144.459,70.836z
			 M141.295,77.791c-0.561,0.483-1.457,0.951-2.108,0.353c-0.463-0.425-0.548-1.18-0.355-1.751c0.109-0.322,0.307-0.603,0.586-0.799
			c0.103-0.072,0.215-0.123,0.332-0.166c0.489-0.458,1.276-0.347,1.775,0.105c0.283,0.256,0.466,0.627,0.457,1.013
			C141.97,77.044,141.661,77.476,141.295,77.791z M143.304,74.842c-0.179,0.379-0.691,0.553-1.076,0.414
			c-0.187-0.067-0.327-0.201-0.399-0.386c-0.059-0.152-0.057-0.335-0.002-0.488c0.051-0.143,0.146-0.271,0.272-0.356
			c0.014-0.015,0.027-0.031,0.042-0.045c0.156-0.147,0.348-0.267,0.568-0.279c0.168-0.009,0.333,0.063,0.451,0.182
			C143.403,74.132,143.45,74.532,143.304,74.842z"/>
		
			<radialGradient id="SVGID_00000152981232063516402880000014035949739305019800_" cx="91.3952" cy="78.8643" r="8.028" gradientUnits="userSpaceOnUse">
			<stop  offset="0.0092" style="stop-color:#F27692"/>
			<stop  offset="0.1463" style="stop-color:#F37C97"/>
			<stop  offset="0.3293" style="stop-color:#F48DA4"/>
			<stop  offset="0.5384" style="stop-color:#F7A9BA"/>
			<stop  offset="0.7666" style="stop-color:#FAD0D9"/>
			<stop  offset="1" style="stop-color:#FFFFFF"/>
		</radialGradient>
		<path style="opacity:0.75;fill:url(#SVGID_00000152981232063516402880000014035949739305019800_);" d="M91.395,70.836
			c-4.434,0-8.028,3.594-8.028,8.028c0,4.434,3.594,8.028,8.028,8.028s8.028-3.594,8.028-8.028
			C99.423,74.431,95.829,70.836,91.395,70.836z M88.231,77.791c-0.561,0.483-1.457,0.951-2.108,0.353
			c-0.463-0.425-0.548-1.18-0.355-1.751c0.109-0.322,0.307-0.603,0.586-0.799c0.103-0.072,0.215-0.123,0.332-0.166
			c0.489-0.458,1.276-0.347,1.775,0.105c0.283,0.256,0.466,0.627,0.457,1.013C88.907,77.044,88.598,77.476,88.231,77.791z
			 M90.24,74.842c-0.179,0.379-0.691,0.553-1.076,0.414c-0.187-0.067-0.327-0.201-0.399-0.386c-0.059-0.152-0.057-0.335-0.002-0.488
			c0.051-0.143,0.146-0.271,0.272-0.356c0.014-0.015,0.027-0.031,0.042-0.045c0.156-0.147,0.348-0.267,0.567-0.279
			c0.168-0.009,0.333,0.063,0.451,0.182C90.34,74.132,90.386,74.532,90.24,74.842z"/>
	</g>
	<g>
		<path style="fill:#332F30;" d="M158.391,191.868c-15.548,0.001-33.589-6.788-34.589-7.17c-1.37-0.523-2.057-2.056-1.535-3.427
			c0.522-1.371,2.056-2.058,3.427-1.536c0.077,0.029,7.849,2.97,17.271,4.976c12.093,2.574,21.391,2.482,26.891-0.267
			c2.857-1.428,4.657-3.549,5.502-6.486c5.906-20.531-7.241-35.839-7.375-35.991c-0.967-1.103-0.857-2.781,0.246-3.747
			c1.103-0.967,2.781-0.857,3.748,0.246c0.158,0.18,3.906,4.498,6.82,11.679c3.863,9.517,4.438,19.643,1.666,29.282
			c-1.261,4.383-4.032,7.67-8.235,9.77C168.347,191.134,163.503,191.868,158.391,191.868z"/>
		<path style="fill:#332F30;" d="M61.902,191.868c-5.113,0-9.955-0.734-13.835-2.671c-4.204-2.1-6.975-5.387-8.236-9.77
			c-2.773-9.639-2.197-19.764,1.666-29.282c2.914-7.181,6.662-11.499,6.82-11.679c0.967-1.103,2.645-1.212,3.748-0.246
			c1.101,0.966,1.212,2.641,0.249,3.743l0,0c-0.034,0.039-3.401,3.951-5.968,10.36c-3.393,8.469-3.867,17.094-1.41,25.635
			c0.845,2.936,2.644,5.057,5.502,6.486c5.5,2.749,14.799,2.841,26.891,0.267c9.422-2.005,17.193-4.946,17.271-4.976
			c1.371-0.522,2.905,0.166,3.427,1.536c0.522,1.37-0.165,2.904-1.535,3.427C95.49,185.08,77.449,191.868,61.902,191.868z"/>
		<g>
			<path style="fill:#33437E;" d="M112.106,188.064c-2.638-1.203-5.547-2.59-6.943-5.594c-1.416-3.046-0.954-7.157,0.305-10.75
				c0.668-1.908,1.536-3.774,2.592-5.488c1.015-1.646,2.283-3.317,3.77-4.359c1.341-0.94,2.811-1.337,4.225-1.328
				c1.489,0.01,2.86,0.448,4.189,0.986c3.461,1.402,6.663,3.363,10.038,4.954c0.584,0.275,1.174,0.539,1.77,0.787
				c-0.194-2.123-1.094-4-0.839-6.273c0.068-0.602,0.234-1.24,0.538-1.787c0.304-0.546,0.768-0.961,1.257-1.218
				c0.934-0.491,1.974-0.484,2.852-0.261c2.375,0.602,3.281,3.466,3.831,6.017c0.472,2.19,0.748,4.483,1.389,6.586
				c0.31,1.017,0.715,1.982,1.277,2.799c0.148,0.215,0.305,0.418,0.469,0.609c0.079-0.018,0.153-0.011,0.211,0.036
				c0.413,0.334,0.872,0.596,1.288,0.926c0.269,0.213,0.534,0.437,0.781,0.683c-0.031,0.253-0.068,0.504-0.11,0.753
				c-0.281,1.657-0.789,3.269-1.364,4.845c-0.522,1.43-1.115,2.831-1.683,4.243c-0.368,0.914-0.819,1.806-1.277,2.678
				c-0.478,0.911-0.996,1.801-1.566,2.657c-0.713,1.071-1.511,2.098-2.417,3.016c-1.541,0.176-3.625-0.618-4.923-0.611
				c-3.501,0.02-6.908-0.533-10.186-1.415C118.314,190.676,115.166,189.46,112.106,188.064z"/>
			<path style="fill:#80CEC5;" d="M121.578,191.555c3.278,0.882,6.685,1.435,10.186,1.415c1.298-0.007,3.382,0.787,4.923,0.611
				c0.906-0.918,1.704-1.944,2.417-3.016c0.57-0.856,1.088-1.747,1.566-2.657c0.458-0.872,0.909-1.764,1.277-2.678
				c0.569-1.411,1.161-2.813,1.683-4.243c0.575-1.576,1.082-3.189,1.364-4.845c0.042-0.248,0.079-0.5,0.11-0.753
				c-0.247-0.247-0.512-0.47-0.781-0.683c-0.416-0.33-0.875-0.592-1.288-0.926c-0.058-0.047-0.133-0.054-0.211-0.036
				c-0.165-0.191-0.322-0.393-0.469-0.609c-0.562-0.817-0.967-1.783-1.277-2.799c-0.641-2.103-0.917-4.396-1.389-6.586
				c-0.55-2.551-1.457-5.415-3.831-6.017c-0.878-0.223-1.918-0.23-2.852,0.261c-0.489,0.257-0.952,0.672-1.257,1.218
				c-0.304,0.547-0.471,1.184-0.538,1.787c-0.255,2.273,0.645,4.149,0.839,6.273c-0.596-0.248-1.186-0.511-1.77-0.787
				c-3.374-1.591-6.577-3.552-10.038-4.954c-1.328-0.538-2.7-0.977-4.189-0.986c-1.413-0.009-2.884,0.388-4.225,1.328
				c-1.487,1.042-2.755,2.713-3.77,4.359c-1.057,1.714-1.924,3.58-2.592,5.488c-1.259,3.593-1.72,7.704-0.305,10.75
				c1.396,3.005,4.306,4.391,6.943,5.594C115.166,189.46,118.314,190.676,121.578,191.555z M113.493,184.38
				c-0.812-0.538-1.576-1.15-2.278-1.825c-0.687-0.661-1.358-1.379-1.872-2.185c-0.921-1.445-1.319-3.155-1.291-4.859
				c0.029-1.774,0.503-3.534,1.279-5.124c0.775-1.589,1.865-3.039,3.229-4.169c1.353-1.122,3.025-1.951,4.796-2.079
				c2.545-0.184,5.025,0.65,7.35,1.594c0.593,0.241,1.182,0.492,1.771,0.742c0.543,0.23,1.085,0.482,1.642,0.677
				c0.657,0.231,1.288,0.532,1.941,0.777c0.742,0.278,1.553,0.562,2.357,0.539c0.601-0.017,1.222-0.311,1.278-0.975
				c0.029-0.345-0.049-0.701-0.136-1.033c-0.111-0.424-0.256-0.838-0.407-1.249c-0.316-0.864-0.679-1.717-0.918-2.607
				c-0.092-0.345-0.172-0.702-0.167-1.061c0.006-0.473,0.11-0.966,0.259-1.413c0.155-0.465,0.399-0.939,0.85-1.174
				c0.314-0.164,0.669-0.243,1.022-0.197c0.483,0.064,0.9,0.333,1.253,0.667c0.524,0.24,0.908,0.726,1.204,1.204
				c0.392,0.632,0.678,1.327,0.92,2.027c0.264,0.763,0.474,1.545,0.652,2.332c0.3,1.327,0.501,2.678,0.58,4.037
				c0.159,2.73-0.404,5.45-1.385,7.989c-0.428,1.108-0.921,2.189-1.556,3.195c-0.52,0.823-1.12,1.595-1.792,2.298
				c-1.293,1.353-2.844,2.445-4.545,3.223c-1.672,0.765-3.481,1.224-5.313,1.378c-1.85,0.156-3.727,0.003-5.528-0.448
				C116.842,186.202,115.079,185.431,113.493,184.38z"/>
			<path style="fill:#84C55D;" d="M141.448,196.158c1.078-0.551,1.874-1.523,2.58-2.507c2.741-3.82,4.608-8.202,6.055-12.675
				c0.603-1.864,1.068-3.959-0.068-5.714c-1.108-1.71-3.215-2.873-5.243-2.965c-3.301-0.15-4.205,4.05-5.105,6.433
				c-1.322,3.369-2.701,6.712-4.055,10.068c-0.577,1.431-1.633,2.923-1.568,4.529c0.016,0.391,0.134,0.752,0.331,1.081
				C135.617,196.484,139.377,197.216,141.448,196.158z"/>
			<path style="fill:#84C55D;" d="M134.374,194.408c-0.197-0.328-0.315-0.689-0.331-1.081c-0.029-0.716,0.165-1.41,0.441-2.085
				c0.014,0.039,0.026,0.079,0.041,0.117c0.223,0.58,0.524,1.144,0.969,1.585c0.433,0.429,0.996,0.691,1.6,0.76
				c0.791,0.089,1.581-0.115,2.32-0.38c1.269-0.454,2.357-1.298,3.254-2.29c0.939-1.038,1.689-2.24,2.325-3.483
				c0.313-0.612,0.599-1.237,0.864-1.872c0.243-0.583,0.456-1.176,0.683-1.766c0.428-1.114,0.825-2.242,1.129-3.397
				c0.328-1.245,0.564-2.54,0.508-3.831c-0.048-1.122-0.352-2.308-1.15-3.138c-0.704-0.732-1.732-1.16-2.743-1.238
				c0.157-0.014,0.319-0.021,0.488-0.013c2.028,0.092,4.136,1.255,5.243,2.965c1.136,1.755,0.671,3.85,0.068,5.714
				c-1.447,4.473-3.314,8.855-6.055,12.675c-0.706,0.984-1.502,1.956-2.58,2.507C139.377,197.216,135.617,196.484,134.374,194.408z"
				/>
		</g>
		<g>
			<path style="fill:#475FAB;" d="M111.849,192.358c2.706-1.041,5.694-2.248,7.27-5.162c1.598-2.955,1.387-7.086,0.349-10.749
				c-0.551-1.945-1.304-3.86-2.254-5.635c-0.913-1.705-2.078-3.45-3.498-4.58c-1.281-1.019-2.725-1.505-4.136-1.582
				c-1.487-0.081-2.882,0.274-4.241,0.73c-3.54,1.189-6.855,2.952-10.32,4.335c-0.6,0.24-1.204,0.466-1.814,0.678
				c0.323-2.108,1.335-3.926,1.219-6.21c-0.031-0.605-0.158-1.252-0.429-1.816c-0.271-0.564-0.708-1.006-1.181-1.292
				c-0.902-0.547-1.941-0.603-2.83-0.434c-2.407,0.457-3.486,3.26-4.19,5.774c-0.604,2.157-1.019,4.429-1.786,6.489
				c-0.371,0.996-0.834,1.935-1.444,2.716c-0.161,0.206-0.329,0.398-0.506,0.579c-0.077-0.023-0.152-0.02-0.213,0.023
				c-0.433,0.308-0.907,0.541-1.342,0.846c-0.281,0.196-0.559,0.404-0.821,0.635c0.016,0.254,0.037,0.507,0.064,0.758
				c0.18,1.671,0.589,3.311,1.067,4.919c0.434,1.459,0.94,2.894,1.422,4.337c0.312,0.935,0.708,1.853,1.112,2.751
				c0.422,0.938,0.885,1.858,1.402,2.747c0.647,1.113,1.381,2.186,2.229,3.157c1.528,0.27,3.656-0.397,4.951-0.311
				c3.493,0.232,6.927-0.113,10.253-0.794C105.494,194.589,108.71,193.565,111.849,192.358z"/>
			<path style="fill:#80CEC5;" d="M111.849,192.358c2.706-1.041,5.694-2.248,7.27-5.162c1.598-2.955,1.387-7.086,0.349-10.749
				c-0.551-1.945-1.304-3.86-2.254-5.635c-0.913-1.705-2.078-3.45-3.498-4.58c-1.281-1.019-2.725-1.505-4.136-1.582
				c-1.487-0.081-2.882,0.274-4.241,0.73c-3.54,1.189-6.855,2.952-10.32,4.335c-0.6,0.24-1.204,0.466-1.814,0.678
				c0.323-2.108,1.335-3.926,1.219-6.21c-0.031-0.605-0.158-1.252-0.429-1.816c-0.271-0.564-0.708-1.006-1.18-1.292
				c-0.902-0.547-1.941-0.603-2.831-0.434c-2.407,0.457-3.486,3.26-4.19,5.774c-0.604,2.157-1.019,4.429-1.786,6.489
				c-0.371,0.996-0.834,1.935-1.444,2.716c-0.161,0.206-0.329,0.398-0.506,0.579c-0.077-0.023-0.152-0.02-0.213,0.023
				c-0.433,0.308-0.907,0.541-1.342,0.846c-0.281,0.196-0.559,0.404-0.821,0.635c0.016,0.254,0.037,0.507,0.064,0.758
				c0.18,1.671,0.589,3.311,1.067,4.919c0.434,1.459,0.94,2.894,1.422,4.337c0.312,0.935,0.708,1.853,1.112,2.751
				c0.422,0.938,0.885,1.858,1.402,2.747c0.647,1.113,1.381,2.186,2.229,3.157c1.528,0.27,3.656-0.397,4.951-0.311
				c3.493,0.232,6.927-0.113,10.253-0.794C105.494,194.589,108.71,193.565,111.849,192.358z M105.365,190.56
				c-1.825,0.34-3.707,0.379-5.545,0.111c-1.818-0.265-3.596-0.833-5.219-1.698c-1.651-0.88-3.132-2.064-4.34-3.493
				c-0.628-0.743-1.181-1.55-1.649-2.403c-0.573-1.043-0.999-2.151-1.359-3.283c-0.825-2.594-1.221-5.344-0.897-8.059
				c0.161-1.352,0.445-2.688,0.825-3.995c0.225-0.775,0.482-1.543,0.792-2.288c0.284-0.685,0.612-1.361,1.041-1.968
				c0.325-0.459,0.738-0.922,1.275-1.129c0.373-0.313,0.806-0.556,1.292-0.59c0.356-0.025,0.705,0.076,1.008,0.259
				c0.436,0.262,0.651,0.75,0.777,1.224c0.121,0.455,0.195,0.954,0.173,1.426c-0.017,0.359-0.118,0.71-0.231,1.049
				c-0.292,0.874-0.707,1.703-1.075,2.546c-0.175,0.401-0.345,0.806-0.482,1.222c-0.107,0.326-0.207,0.677-0.199,1.023
				c0.015,0.666,0.618,0.997,1.217,1.051c0.801,0.072,1.628-0.162,2.385-0.395c0.666-0.205,1.314-0.467,1.984-0.657
				c0.568-0.161,1.124-0.38,1.68-0.576c0.603-0.214,1.206-0.429,1.813-0.633c2.378-0.801,4.904-1.483,7.433-1.145
				c1.76,0.235,3.379,1.165,4.661,2.367c1.292,1.212,2.292,2.725,2.969,4.358c0.678,1.634,1.043,3.42,0.965,5.192
				c-0.075,1.702-0.577,3.384-1.584,4.771c-0.562,0.773-1.275,1.449-2.001,2.067c-0.742,0.631-1.541,1.195-2.384,1.683
				C109.042,189.55,107.235,190.211,105.365,190.56z"/>
			<path style="fill:#84C55D;" d="M89.237,197.338c0.216-0.316,0.356-0.669,0.396-1.059c0.162-1.599-0.801-3.152-1.29-4.615
				c-1.148-3.433-2.321-6.852-3.436-10.296c-0.754-2.433-1.401-6.681-4.705-6.731c-2.03-0.031-4.204,1.001-5.414,2.641
				c-1.241,1.682-0.903,3.802-0.415,5.699c1.172,4.553,2.77,9.04,5.274,13.019c0.645,1.025,1.38,2.043,2.423,2.659
				C84.073,199.837,87.87,199.334,89.237,197.338z"/>
			<path style="fill:#84C55D;" d="M89.237,197.338c0.216-0.316,0.356-0.669,0.396-1.059c0.073-0.713-0.079-1.417-0.313-2.109
				c-0.017,0.038-0.031,0.077-0.048,0.115c-0.258,0.566-0.593,1.11-1.064,1.523c-0.458,0.402-1.036,0.63-1.644,0.661
				c-0.795,0.041-1.571-0.211-2.293-0.52c-1.239-0.53-2.274-1.439-3.109-2.483c-0.875-1.093-1.55-2.339-2.109-3.618
				c-0.275-0.63-0.523-1.271-0.748-1.921c-0.208-0.597-0.384-1.202-0.575-1.804c-0.36-1.138-0.688-2.288-0.921-3.459
				c-0.252-1.262-0.408-2.569-0.274-3.855c0.116-1.117,0.491-2.282,1.339-3.062c0.747-0.688,1.799-1.052,2.813-1.068
				c-0.156-0.024-0.317-0.04-0.486-0.043c-2.03-0.031-4.204,1.001-5.414,2.641c-1.241,1.682-0.903,3.802-0.415,5.699
				c1.172,4.553,2.77,9.04,5.274,13.019c0.645,1.025,1.38,2.043,2.423,2.659C84.073,199.837,87.87,199.334,89.237,197.338z"/>
		</g>
	</g>
</g>
</svg>
